<svg width="30" height="30" viewBox="0 0 30 30" fill="none" xmlns="http://www.w3.org/2000/svg">
<path d="M19.7288 15.8583L14.8956 15.8583L14.9249 10.4541M25.5677 18.1538C25.7391 17.4555 25.8464 16.7301 25.8826 15.9841C26.1821 9.82014 21.5145 4.58474 15.4575 4.29053C9.40045 3.99632 4.24751 8.75471 3.94809 14.9187C3.69787 20.0699 6.9164 24.5725 11.5159 26.0849" stroke="white" stroke-width="1.5" stroke-linecap="round" stroke-linejoin="round"/>
<path d="M17.1049 19.8955C17.4682 19.8955 17.7865 19.9395 18.0599 20.0276C18.3364 20.1128 18.5663 20.2336 18.7496 20.3898C18.9328 20.5432 19.0711 20.7279 19.1644 20.9438C19.2576 21.1569 19.3042 21.3927 19.3042 21.6512C19.3042 21.8216 19.2769 21.9793 19.2222 22.1242C19.1708 22.2691 19.1017 22.4012 19.0148 22.5205C18.9312 22.6398 18.8348 22.7478 18.7254 22.8444C18.6161 22.941 18.5052 23.0262 18.3927 23.1001C18.1226 23.2762 17.8187 23.4182 17.4811 23.5262C17.3685 23.566 17.256 23.6143 17.1435 23.6711C17.0341 23.7251 16.9361 23.789 16.8492 23.8628C16.7624 23.9339 16.6917 24.0177 16.637 24.1143C16.5824 24.208 16.555 24.316 16.555 24.4381V24.7023H18.2335C18.3685 24.7023 18.5036 24.708 18.6386 24.7194C18.7737 24.7307 18.8959 24.7563 19.0052 24.7961C19.1145 24.8358 19.2029 24.8955 19.2705 24.9751C19.338 25.0518 19.3717 25.1569 19.3717 25.2904C19.3717 25.4268 19.338 25.5347 19.2705 25.6143C19.2029 25.6938 19.1145 25.7549 19.0052 25.7975C18.8959 25.8401 18.7737 25.8671 18.6386 25.8785C18.5036 25.8898 18.3685 25.8955 18.2335 25.8955H15.8316C15.6708 25.8955 15.5373 25.8728 15.4312 25.8273C15.3283 25.779 15.2463 25.7194 15.1853 25.6483C15.1242 25.5745 15.0808 25.4935 15.055 25.4055C15.0325 25.3145 15.0213 25.2251 15.0213 25.137V24.4552C15.0213 24.2364 15.0615 24.0319 15.1418 23.8415C15.2254 23.6483 15.3412 23.4736 15.4891 23.3174C15.6402 23.1583 15.8187 23.0162 16.0245 22.8912C16.2335 22.7662 16.465 22.6597 16.719 22.5716C16.973 22.4836 17.1756 22.3998 17.3267 22.3202C17.4779 22.2378 17.5936 22.1583 17.674 22.0816C17.7576 22.002 17.8123 21.9225 17.838 21.843C17.8637 21.7634 17.8766 21.6824 17.8766 21.6001C17.8766 21.4523 17.8476 21.3358 17.7898 21.2506C17.7351 21.1654 17.666 21.1029 17.5824 21.0631C17.502 21.0205 17.4168 20.9949 17.3267 20.9864C17.2399 20.9751 17.166 20.9694 17.1049 20.9694C16.9441 20.9694 16.8155 20.9907 16.719 21.0333C16.6226 21.0731 16.5486 21.1242 16.4972 21.1867C16.4489 21.2492 16.4168 21.3188 16.4007 21.3955C16.3878 21.4694 16.3814 21.5404 16.3814 21.6086C16.3814 21.7194 16.3573 21.8145 16.309 21.8941C16.2608 21.9708 16.1997 22.0333 16.1258 22.0816C16.055 22.1299 15.9763 22.1654 15.8894 22.1881C15.8058 22.2108 15.7287 22.2222 15.6579 22.2222C15.4393 22.2222 15.2624 22.1697 15.1274 22.0645C14.9923 21.9566 14.9248 21.8188 14.9248 21.6512C14.9248 21.5773 14.9345 21.4822 14.9537 21.3657C14.973 21.2492 15.01 21.1256 15.0647 20.9949C15.1193 20.8643 15.1965 20.7336 15.2962 20.6029C15.3959 20.4722 15.5261 20.3543 15.6869 20.2492C15.8476 20.1441 16.0438 20.0589 16.2753 19.9935C16.5068 19.9282 16.7833 19.8955 17.1049 19.8955Z" fill="white"/>
<path d="M23.2399 21.9495C23.3975 21.9495 23.5213 21.9694 23.6113 22.0091C23.7013 22.0461 23.7689 22.0972 23.8139 22.1626C23.8621 22.2279 23.8926 22.3046 23.9055 22.3927C23.9184 22.4779 23.9248 22.5688 23.9248 22.6654V25.1881C23.9248 25.2876 23.9184 25.3799 23.9055 25.4651C23.8926 25.5503 23.8637 25.6256 23.8187 25.691C23.7737 25.7535 23.7062 25.8032 23.6161 25.8401C23.5261 25.877 23.4039 25.8955 23.2496 25.8955C23.0984 25.8955 22.9779 25.8785 22.8878 25.8444C22.7978 25.8074 22.7287 25.7591 22.6804 25.6995C22.6322 25.6398 22.6 25.5688 22.584 25.4864C22.5711 25.404 22.5647 25.316 22.5647 25.2222V24.4637H20.9152C20.7158 24.4637 20.5518 24.4495 20.4232 24.4211C20.2946 24.3927 20.1917 24.3557 20.1145 24.3103C20.0406 24.262 19.9875 24.2066 19.9554 24.1441C19.9264 24.0816 19.9119 24.0177 19.9119 23.9523C19.9119 23.9182 19.9152 23.8841 19.9216 23.8501C19.9312 23.816 19.9409 23.7819 19.9505 23.7478L20.9248 20.7563C20.957 20.6512 20.9875 20.5489 21.0164 20.4495C21.0486 20.3501 21.0904 20.262 21.1418 20.1853C21.1965 20.1086 21.2705 20.0475 21.3637 20.002C21.457 19.9537 21.584 19.9296 21.7447 19.9296C21.8605 19.9296 21.9554 19.9438 22.0293 19.9722C22.1065 20.0006 22.1676 20.039 22.2126 20.0873C22.2576 20.1327 22.2881 20.1867 22.3042 20.2492C22.3235 20.3089 22.3332 20.3728 22.3332 20.441C22.3332 20.5091 22.3267 20.5787 22.3139 20.6498C22.301 20.718 22.2849 20.7819 22.2656 20.8415C22.2496 20.9012 22.2319 20.9552 22.2126 21.0035C22.1965 21.0489 22.1853 21.083 22.1788 21.1057C22.1788 21.1057 22.1692 21.137 22.1499 21.1995C22.1306 21.2591 22.1049 21.3387 22.0727 21.4381C22.0406 21.5347 22.0052 21.6469 21.9666 21.7748C21.928 21.8998 21.8878 22.0276 21.846 22.1583C21.7463 22.4651 21.6354 22.8131 21.5132 23.2023L21.5518 23.2364H22.5647V22.6569C22.5647 22.5603 22.5711 22.4694 22.584 22.3841C22.5968 22.2989 22.6258 22.2251 22.6708 22.1626C22.7158 22.0972 22.7833 22.0461 22.8734 22.0091C22.9634 21.9694 23.0856 21.9495 23.2399 21.9495Z" fill="white"/>
</svg>
