<svg width="30" height="30" viewBox="0 0 30 30" fill="none" xmlns="http://www.w3.org/2000/svg">
<path d="M22.976 20.064C22.976 20.352 22.912 20.648 22.776 20.936C22.64 21.224 22.464 21.496 22.232 21.752C21.84 22.184 21.408 22.496 20.92 22.696C20.44 22.896 19.92 23 19.36 23C18.544 23 17.672 22.808 16.752 22.416C15.832 22.024 14.912 21.496 14 20.832C13.08 20.16 12.208 19.416 11.376 18.592C10.552 17.76 9.808 16.888 9.144 15.976C8.488 15.064 7.96 14.152 7.576 13.248C7.192 12.336 7 11.464 7 10.632C7 10.088 7.096 9.568 7.288 9.088C7.48 8.6 7.784 8.152 8.208 7.752C8.72 7.248 9.28 7 9.872 7C10.096 7 10.32 7.048 10.52 7.144C10.728 7.24 10.912 7.384 11.056 7.592L12.912 10.208C13.056 10.408 13.16 10.592 13.232 10.768C13.304 10.936 13.344 11.104 13.344 11.256C13.344 11.448 13.288 11.64 13.176 11.824C13.072 12.008 12.92 12.2 12.728 12.392L12.12 13.024C12.032 13.112 11.992 13.216 11.992 13.344C11.992 13.408 12 13.464 12.016 13.528C12.04 13.592 12.064 13.64 12.08 13.688C12.224 13.952 12.472 14.296 12.824 14.712C13.184 15.128 13.568 15.552 13.984 15.976C14.416 16.4 14.832 16.792 15.256 17.152C15.672 17.504 16.016 17.744 16.288 17.888C16.328 17.904 16.376 17.928 16.432 17.952C16.496 17.976 16.56 17.984 16.632 17.984C16.768 17.984 16.872 17.936 16.96 17.848L17.568 17.248C17.768 17.048 17.96 16.896 18.144 16.8C18.328 16.688 18.512 16.632 18.712 16.632C18.864 16.632 19.024 16.664 19.2 16.736C19.376 16.808 19.56 16.912 19.76 17.048L22.408 18.928C22.616 19.072 22.76 19.24 22.848 19.44C22.928 19.64 22.976 19.84 22.976 20.064Z" stroke="white" stroke-width="1.2" stroke-miterlimit="10"/>
</svg>
