<svg width="160" height="30" viewBox="0 0 160 30" fill="none" xmlns="http://www.w3.org/2000/svg">
<rect width="160" height="30" rx="15" fill="#A91E12"/>
<path d="M64.928 22.8561C69.0304 22.8561 72.3561 19.5304 72.3561 15.428C72.3561 11.3256 69.0304 8 64.928 8C60.8256 8 57.5 11.3256 57.5 15.428C57.5 16.781 57.8617 18.0495 58.4937 19.1421L57.8714 22.4847L61.214 21.8624C62.3066 22.4943 63.5751 22.8561 64.928 22.8561Z" stroke="white" stroke-width="1.5" stroke-linecap="round" stroke-linejoin="round"/>
<path d="M63.0859 12.2836C62.9512 11.9763 62.8015 11.9689 62.6742 11.9689C62.5619 11.9614 62.4416 11.9614 62.3143 11.9614C62.195 11.9614 61.9926 12.0062 61.8206 12.1936C61.6481 12.3806 61.1768 12.8225 61.1768 13.7284C61.1768 14.6334 61.834 15.5087 61.9255 15.6305C62.015 15.7503 63.1982 17.6669 65.0705 18.4086C66.6276 19.0226 66.9424 18.9028 67.2794 18.865C67.616 18.8277 68.3652 18.4235 68.5223 17.989C68.672 17.5624 68.672 17.1881 68.6272 17.113C68.5824 17.0384 68.4547 16.9932 68.2752 16.8958C68.0878 16.8062 67.1894 16.3568 67.0174 16.2967C66.8449 16.237 66.7251 16.2071 66.6053 16.3867C66.4855 16.5741 66.1334 16.9857 66.0216 17.1055C65.9162 17.2254 65.8043 17.2403 65.6244 17.1503C65.4374 17.0607 64.8458 16.8659 64.1418 16.237C63.595 15.7498 63.2281 15.1437 63.1157 14.9643C63.0113 14.7768 63.1008 14.6794 63.1982 14.5894C63.2808 14.5074 63.3856 14.3726 63.4756 14.2677C63.5651 14.1624 63.595 14.0803 63.6626 13.9605C63.7223 13.8407 63.6924 13.7284 63.6476 13.6388C63.6025 13.5563 63.2509 12.6505 63.0859 12.2836Z" fill="white"/>
<path d="M87.2784 19C87.2784 18.6067 87.2784 18.2283 87.2784 17.865C87.2784 17.5017 87.2784 17.0983 87.2784 16.655V14.43C87.2784 13.98 87.2784 13.57 87.2784 13.2C87.2784 12.8267 87.2784 12.4433 87.2784 12.05L87.7334 12.905H86.8484C86.4551 12.905 86.1068 12.905 85.8034 12.905C85.5001 12.905 85.2118 12.905 84.9384 12.905V11.87H90.7834V12.905C90.5134 12.905 90.2268 12.905 89.9234 12.905C89.6201 12.905 89.2701 12.905 88.8734 12.905H87.9884L88.4484 12.05C88.4484 12.4433 88.4484 12.8267 88.4484 13.2C88.4484 13.57 88.4484 13.98 88.4484 14.43V16.655C88.4484 17.0983 88.4484 17.5017 88.4484 17.865C88.4484 18.2283 88.4484 18.6067 88.4484 19H87.2784ZM91.9142 19C91.9142 18.6067 91.9142 18.2283 91.9142 17.865C91.9142 17.5017 91.9142 17.0983 91.9142 16.655V14.25C91.9142 13.8033 91.9142 13.3933 91.9142 13.02C91.9142 12.6467 91.9142 12.2633 91.9142 11.87H96.4542V12.86C96.1309 12.86 95.7842 12.86 95.4142 12.86C95.0442 12.86 94.6076 12.86 94.1042 12.86H92.4092L93.0642 12.05C93.0642 12.4433 93.0642 12.8267 93.0642 13.2C93.0642 13.57 93.0642 13.98 93.0642 14.43V16.475C93.0642 16.915 93.0642 17.3183 93.0642 17.685C93.0642 18.0483 93.0642 18.4267 93.0642 18.82L92.4792 18.01H94.1992C94.6192 18.01 95.0176 18.01 95.3942 18.01C95.7709 18.01 96.1326 18.01 96.4792 18.01V19H91.9142ZM92.8042 15.87V14.915H94.1592C94.6126 14.915 95.0009 14.915 95.3242 14.915C95.6509 14.915 95.9659 14.915 96.2692 14.915V15.87C95.9526 15.87 95.6309 15.87 95.3042 15.87C94.9809 15.87 94.5976 15.87 94.1542 15.87H92.8042ZM97.3515 19C97.5415 18.6733 97.7365 18.3417 97.9365 18.005C98.1365 17.6683 98.3448 17.3167 98.5615 16.95L99.6015 15.18V15.49L98.6865 14.025C98.4765 13.685 98.2632 13.3433 98.0465 13C97.8298 12.6533 97.5948 12.2767 97.3415 11.87H98.6915C98.8748 12.1767 99.0548 12.4767 99.2315 12.77C99.4082 13.06 99.5765 13.3383 99.7365 13.605L100.356 14.63H100.456L101.056 13.595C101.213 13.3283 101.376 13.0483 101.546 12.755C101.72 12.4617 101.891 12.1667 102.061 11.87H103.371C103.141 12.2533 102.921 12.62 102.711 12.97C102.505 13.3167 102.315 13.6383 102.141 13.935L101.151 15.59V15.25L102.171 16.805C102.421 17.1883 102.66 17.5567 102.886 17.91C103.116 18.26 103.355 18.6233 103.601 19H102.211C102.025 18.7 101.846 18.4167 101.676 18.15C101.51 17.8833 101.348 17.6267 101.191 17.38L100.426 16.16H100.326L99.6115 17.385C99.4582 17.645 99.3048 17.905 99.1515 18.165C99.0015 18.425 98.8398 18.7033 98.6665 19H97.3515ZM106.556 19C106.556 18.6067 106.556 18.2283 106.556 17.865C106.556 17.5017 106.556 17.0983 106.556 16.655V14.43C106.556 13.98 106.556 13.57 106.556 13.2C106.556 12.8267 106.556 12.4433 106.556 12.05L107.011 12.905H106.126C105.732 12.905 105.384 12.905 105.081 12.905C104.777 12.905 104.489 12.905 104.216 12.905V11.87H110.061V12.905C109.791 12.905 109.504 12.905 109.201 12.905C108.897 12.905 108.547 12.905 108.151 12.905H107.266L107.726 12.05C107.726 12.4433 107.726 12.8267 107.726 13.2C107.726 13.57 107.726 13.98 107.726 14.43V16.655C107.726 17.0983 107.726 17.5017 107.726 17.865C107.726 18.2283 107.726 18.6067 107.726 19H106.556Z" fill="white"/>
</svg>
