<svg width="160" height="30" viewBox="0 0 160 30" fill="none" xmlns="http://www.w3.org/2000/svg">
<rect width="160" height="30" rx="15" fill="#DC2B1B"/>
<path d="M67.428 22.8561C71.5304 22.8561 74.8561 19.5304 74.8561 15.428C74.8561 11.3256 71.5304 8 67.428 8C63.3256 8 60 11.3256 60 15.428C60 16.781 60.3617 18.0495 60.9937 19.1421L60.3714 22.4847L63.714 21.8624C64.8066 22.4943 66.0751 22.8561 67.428 22.8561Z" stroke="white" stroke-width="1.5" stroke-linecap="round" stroke-linejoin="round"/>
<path d="M65.5859 12.2836C65.4512 11.9763 65.3015 11.9689 65.1742 11.9689C65.0619 11.9614 64.9416 11.9614 64.8143 11.9614C64.695 11.9614 64.4926 12.0062 64.3206 12.1936C64.1481 12.3806 63.6768 12.8225 63.6768 13.7284C63.6768 14.6334 64.334 15.5087 64.4255 15.6305C64.515 15.7503 65.6982 17.6669 67.5705 18.4086C69.1276 19.0226 69.4424 18.9028 69.7794 18.865C70.116 18.8277 70.8652 18.4235 71.0223 17.989C71.172 17.5624 71.172 17.1881 71.1272 17.113C71.0824 17.0384 70.9547 16.9932 70.7752 16.8958C70.5878 16.8062 69.6894 16.3568 69.5174 16.2967C69.3449 16.237 69.2251 16.2071 69.1053 16.3867C68.9855 16.5741 68.6334 16.9857 68.5216 17.1055C68.4162 17.2254 68.3043 17.2403 68.1244 17.1503C67.9374 17.0607 67.3458 16.8659 66.6418 16.237C66.095 15.7498 65.7281 15.1437 65.6157 14.9643C65.5113 14.7768 65.6008 14.6794 65.6982 14.5894C65.7808 14.5074 65.8856 14.3726 65.9756 14.2677C66.0651 14.1624 66.095 14.0803 66.1626 13.9605C66.2223 13.8407 66.1924 13.7284 66.1476 13.6388C66.1025 13.5563 65.7509 12.6505 65.5859 12.2836Z" fill="white"/>
<path d="M84.7784 19C84.7784 18.6067 84.7784 18.2283 84.7784 17.865C84.7784 17.5017 84.7784 17.0983 84.7784 16.655V14.43C84.7784 13.98 84.7784 13.57 84.7784 13.2C84.7784 12.8267 84.7784 12.4433 84.7784 12.05L85.2334 12.905H84.3484C83.9551 12.905 83.6068 12.905 83.3034 12.905C83.0001 12.905 82.7118 12.905 82.4384 12.905V11.87H88.2834V12.905C88.0134 12.905 87.7268 12.905 87.4234 12.905C87.1201 12.905 86.7701 12.905 86.3734 12.905H85.4884L85.9484 12.05C85.9484 12.4433 85.9484 12.8267 85.9484 13.2C85.9484 13.57 85.9484 13.98 85.9484 14.43V16.655C85.9484 17.0983 85.9484 17.5017 85.9484 17.865C85.9484 18.2283 85.9484 18.6067 85.9484 19H84.7784ZM89.4142 19C89.4142 18.6067 89.4142 18.2283 89.4142 17.865C89.4142 17.5017 89.4142 17.0983 89.4142 16.655V14.25C89.4142 13.8033 89.4142 13.3933 89.4142 13.02C89.4142 12.6467 89.4142 12.2633 89.4142 11.87H93.9542V12.86C93.6309 12.86 93.2842 12.86 92.9142 12.86C92.5442 12.86 92.1076 12.86 91.6042 12.86H89.9092L90.5642 12.05C90.5642 12.4433 90.5642 12.8267 90.5642 13.2C90.5642 13.57 90.5642 13.98 90.5642 14.43V16.475C90.5642 16.915 90.5642 17.3183 90.5642 17.685C90.5642 18.0483 90.5642 18.4267 90.5642 18.82L89.9792 18.01H91.6992C92.1192 18.01 92.5176 18.01 92.8942 18.01C93.2709 18.01 93.6326 18.01 93.9792 18.01V19H89.4142ZM90.3042 15.87V14.915H91.6592C92.1126 14.915 92.5009 14.915 92.8242 14.915C93.1509 14.915 93.4659 14.915 93.7692 14.915V15.87C93.4526 15.87 93.1309 15.87 92.8042 15.87C92.4809 15.87 92.0976 15.87 91.6542 15.87H90.3042ZM94.8515 19C95.0415 18.6733 95.2365 18.3417 95.4365 18.005C95.6365 17.6683 95.8448 17.3167 96.0615 16.95L97.1015 15.18V15.49L96.1865 14.025C95.9765 13.685 95.7632 13.3433 95.5465 13C95.3298 12.6533 95.0948 12.2767 94.8415 11.87H96.1915C96.3748 12.1767 96.5548 12.4767 96.7315 12.77C96.9082 13.06 97.0765 13.3383 97.2365 13.605L97.8565 14.63H97.9565L98.5565 13.595C98.7132 13.3283 98.8765 13.0483 99.0465 12.755C99.2198 12.4617 99.3915 12.1667 99.5615 11.87H100.871C100.641 12.2533 100.421 12.62 100.211 12.97C100.005 13.3167 99.8148 13.6383 99.6415 13.935L98.6515 15.59V15.25L99.6715 16.805C99.9215 17.1883 100.16 17.5567 100.386 17.91C100.616 18.26 100.855 18.6233 101.101 19H99.7115C99.5248 18.7 99.3465 18.4167 99.1765 18.15C99.0098 17.8833 98.8482 17.6267 98.6915 17.38L97.9265 16.16H97.8265L97.1115 17.385C96.9582 17.645 96.8048 17.905 96.6515 18.165C96.5015 18.425 96.3398 18.7033 96.1665 19H94.8515ZM104.056 19C104.056 18.6067 104.056 18.2283 104.056 17.865C104.056 17.5017 104.056 17.0983 104.056 16.655V14.43C104.056 13.98 104.056 13.57 104.056 13.2C104.056 12.8267 104.056 12.4433 104.056 12.05L104.511 12.905H103.626C103.232 12.905 102.884 12.905 102.581 12.905C102.277 12.905 101.989 12.905 101.716 12.905V11.87H107.561V12.905C107.291 12.905 107.004 12.905 106.701 12.905C106.397 12.905 106.047 12.905 105.651 12.905H104.766L105.226 12.05C105.226 12.4433 105.226 12.8267 105.226 13.2C105.226 13.57 105.226 13.98 105.226 14.43V16.655C105.226 17.0983 105.226 17.5017 105.226 17.865C105.226 18.2283 105.226 18.6067 105.226 19H104.056Z" fill="white"/>
</svg>
