<svg width="160" height="29" viewBox="0 0 160 29" fill="none" xmlns="http://www.w3.org/2000/svg">
<path d="M15.9626 17.084V3.23554H19.4544V11.001L24.9416 3.23554H27.9345V17.084H24.4427V9.18907L18.8309 17.084H15.9626Z" fill="white"/>
<path d="M29.3063 19.8019V13.9778H30.5534C31.551 12.2953 32.0499 9.5774 32.0499 5.69466V3.23559H42.0265V13.9778H43.7724V19.8019H40.53V17.084H32.424V19.8019H29.3063ZM38.6594 13.9778V6.34178H35.5417C35.5417 9.18912 35.0428 11.7776 34.2946 13.9778H38.6594Z" fill="white"/>
<path d="M45.643 17.084V3.23554H55.7443V6.34173H49.0101V8.2831H54.3725V11.2599H49.0101V13.9778H55.869V17.084H45.643Z" fill="white"/>
<path d="M57.8643 17.084V3.23554H63.8503C65.3467 3.23554 66.4691 3.62381 67.3421 4.40036C68.215 5.17691 68.7138 6.21231 68.7138 7.50655C68.7138 8.8008 68.215 9.96562 67.3421 10.7422C66.4691 11.5187 65.222 11.907 63.8503 11.907H61.3561V17.084H57.8643ZM61.2314 9.05965H63.6008C64.5985 9.05965 65.222 8.54195 65.222 7.63598C65.222 6.73 64.5985 6.21231 63.6008 6.21231H61.3561V9.05965H61.2314Z" fill="white"/>
<path d="M70.9588 17.084V3.23559H81.4342V17.084H80.0624V4.52984H72.4553V17.084H70.9588Z" fill="white"/>
<path d="M91.4106 2.97671C93.2812 2.97671 94.9024 3.62383 96.1495 5.0475C97.3966 6.47117 98.0201 8.15369 98.0201 10.0951C98.0201 12.0364 97.3966 13.8484 96.1495 15.272C94.9024 16.6957 93.2812 17.3428 91.4106 17.3428C89.54 17.3428 87.9188 16.6957 86.547 15.272C85.2999 13.8484 84.6764 12.1659 84.6764 10.0951C84.6764 8.02427 85.2999 6.34175 86.547 5.0475C87.9188 3.75326 89.4153 2.97671 91.4106 2.97671ZM91.4106 15.9192C92.9071 15.9192 94.1542 15.4015 95.1518 14.2367C96.1495 13.0718 96.6483 11.7776 96.6483 10.0951C96.6483 8.41254 96.1495 7.1183 95.1518 5.95348C94.1542 4.78865 92.9071 4.27096 91.4106 4.27096C89.9141 4.27096 88.667 4.78865 87.6694 5.95348C86.6717 7.1183 86.0482 8.54197 86.0482 10.2245C86.0482 11.907 86.547 13.2013 87.5447 14.3661C88.667 15.4015 89.9141 15.9192 91.4106 15.9192Z" fill="white"/>
<path d="M101.387 17.084V3.23554H102.759V14.6249L110.99 3.23554H112.237V17.084H110.865V5.69461L102.51 17.084H101.387Z" fill="white"/>
<path d="M117.475 15.2721C116.227 13.9778 115.479 12.1659 115.479 10.0951C115.479 8.02428 116.103 6.34176 117.475 4.91809C118.846 3.49442 120.467 2.8473 122.338 2.8473C123.835 2.8473 125.082 3.23557 126.079 3.88269V5.43579C124.957 4.65924 123.71 4.27097 122.338 4.27097C120.842 4.27097 119.47 4.78866 118.472 5.95349C117.475 6.98888 116.851 8.41255 116.851 10.0951C116.851 11.7776 117.35 13.2013 118.472 14.2367C119.47 15.2721 120.842 15.9192 122.338 15.9192C123.835 15.9192 125.206 15.4015 126.329 14.4955V16.0486C125.206 16.8252 123.959 17.2134 122.338 17.2134C120.343 17.3428 118.722 16.6957 117.475 15.2721Z" fill="white"/>
<path d="M130.569 3.23554V9.3185L136.804 3.23554H138.675L132.065 9.57735L139.672 17.084H137.677L130.569 10.095V17.084H129.197V3.23554H130.569Z" fill="white"/>
<path d="M140.545 17.0839L146.531 3.10607H147.903L153.889 17.0839H152.393L150.771 13.2012H143.788L142.167 17.0839H140.545ZM144.037 12.0364H150.148L147.155 5.04744L144.037 12.0364Z" fill="white"/>
<path d="M8.85423 3.10607H5.61184L0 17.0839H3.61652L4.73888 14.2366L5.86125 11.2598L7.23303 7.63593L8.60482 11.2598L9.72718 14.2366L10.8496 17.0839H14.4661L8.85423 3.10607Z" fill="white"/>
<path d="M153.765 3.23562H156.882V6.47123H160V0H153.765" fill="#FA1928"/>
<path d="M2.25366 28.215V27.694C1.53356 27.6669 0.97792 27.4526 0.586752 27.0511C0.195584 26.6496 0 26.1736 0 25.6232C0 25.0729 0.195584 24.5969 0.586752 24.1954C0.97792 23.7939 1.53356 23.5796 2.25366 23.5525V23.1194H3.22047V23.5525C3.93613 23.5796 4.48954 23.7939 4.88071 24.1954C5.27632 24.5969 5.47413 25.0729 5.47413 25.6232C5.47413 26.1736 5.27632 26.6496 4.88071 27.0511C4.48954 27.4526 3.93613 27.6669 3.22047 27.694V28.215H2.25366ZM2.25366 26.8142V24.4322C1.84471 24.4413 1.53133 24.554 1.31352 24.7706C1.09572 24.9826 0.98681 25.2668 0.98681 25.6232C0.98681 25.9751 1.09572 26.2593 1.31352 26.4759C1.53578 26.6924 1.84916 26.8052 2.25366 26.8142ZM3.22047 24.4322V26.8142C3.62053 26.8052 3.93168 26.6924 4.15394 26.4759C4.37619 26.2593 4.48732 25.9751 4.48732 25.6232C4.48732 25.2668 4.37842 24.9826 4.16061 24.7706C3.9428 24.554 3.62942 24.4413 3.22047 24.4322Z" fill="white"/>
<path d="M6.33931 28.0323V23.2954H9.76647V24.1683H7.29945V25.0819H9.2864V25.9413H7.29945V27.1594H9.83982V28.0323H6.33931Z" fill="white"/>
<path d="M10.2109 29V27.1594H10.6709C10.8843 26.821 11.0399 26.415 11.1377 25.9413C11.2355 25.4631 11.2844 24.8315 11.2844 24.0465V23.2954H14.5648V27.1594H15.2049V29H14.3048V28.0323H11.111V29H10.2109ZM11.7311 27.1594H13.6047V24.1683H12.2378C12.2378 24.7638 12.2045 25.3052 12.1378 25.7924C12.0711 26.2796 11.9356 26.7353 11.7311 27.1594Z" fill="white"/>
<path d="M15.9045 28.0323V23.2954H19.3317V24.1683H16.8646V25.0819H18.8516V25.9413H16.8646V27.1594H19.405V28.0323H15.9045Z" fill="white"/>
<path d="M20.1694 28.0323V23.2954H22.2097C22.712 23.2954 23.1077 23.4262 23.3966 23.6879C23.69 23.9495 23.8366 24.2946 23.8366 24.7232C23.8366 25.1473 23.69 25.4924 23.3966 25.7586C23.1077 26.0247 22.712 26.1578 22.2097 26.1578H21.1296V28.0323H20.1694ZM21.1296 25.3255H22.1431C22.3742 25.3255 22.5542 25.2759 22.6831 25.1766C22.812 25.0729 22.8765 24.9262 22.8765 24.7368C22.8765 24.5473 22.812 24.4029 22.6831 24.3037C22.5542 24.1999 22.3742 24.148 22.1431 24.148H21.1296V25.3255Z" fill="white"/>
<path d="M23.637 28.0323L25.6373 23.2683H26.5574L28.5577 28.0323H27.5375L27.0775 26.936H25.1039L24.6438 28.0323H23.637ZM25.4039 26.1308H26.7708L26.0907 24.4864L25.4039 26.1308Z" fill="white"/>
<path d="M28.7079 27.9917V27.112C28.8013 27.1481 28.9146 27.1661 29.048 27.1661C29.3058 27.1661 29.4747 26.9947 29.5547 26.6518C29.6392 26.309 29.6903 25.6526 29.7081 24.6826L29.7281 23.2954H33.0219V28.0323H32.0684V24.1683H30.6549L30.6282 25.1292C30.6015 26.2255 30.4771 26.9879 30.2548 27.4165C30.037 27.8406 29.6525 28.0526 29.1013 28.0526C28.9324 28.0526 28.8013 28.0323 28.7079 27.9917Z" fill="white"/>
<path d="M34.0582 28.0323V23.2954H35.0183V24.8586H36.0451C36.6008 24.8586 37.0408 25.0074 37.3653 25.3052C37.6898 25.5984 37.8521 25.9796 37.8521 26.4488C37.8521 26.918 37.6898 27.2992 37.3653 27.5925C37.0408 27.8857 36.6008 28.0323 36.0451 28.0323H34.0582ZM35.0183 27.1729H35.9918C36.2763 27.1729 36.4963 27.1097 36.6519 26.9834C36.8075 26.8571 36.8853 26.6744 36.8853 26.4353C36.8853 26.1917 36.8075 26.0067 36.6519 25.8804C36.4963 25.7496 36.2763 25.6841 35.9918 25.6841H35.0183V27.1729Z" fill="white"/>
<path d="M38.5771 28.0323V23.2954H39.5372V25.0683H41.6442V23.2954H42.5977V28.0323H41.6442V25.9548H39.5372V28.0323H38.5771Z" fill="white"/>
<path d="M44.8567 26.7736C45.1323 27.0669 45.4768 27.2135 45.8902 27.2135C46.3036 27.2135 46.6459 27.0669 46.917 26.7736C47.1926 26.4804 47.3304 26.1105 47.3304 25.6638C47.3304 25.2172 47.1926 24.8473 46.917 24.554C46.6459 24.2608 46.3036 24.1142 45.8902 24.1142C45.4768 24.1142 45.1323 24.2608 44.8567 24.554C44.5856 24.8473 44.45 25.2172 44.45 25.6638C44.45 26.1105 44.5856 26.4804 44.8567 26.7736ZM47.6171 27.4165C47.1593 27.8902 46.5837 28.1271 45.8902 28.1271C45.1968 28.1271 44.6189 27.8902 44.1566 27.4165C43.6988 26.9383 43.4699 26.3541 43.4699 25.6638C43.4699 24.9736 43.6988 24.3916 44.1566 23.9179C44.6145 23.4397 45.1923 23.2006 45.8902 23.2006C46.5881 23.2006 47.166 23.4397 47.6238 23.9179C48.0817 24.3916 48.3106 24.9736 48.3106 25.6638C48.3106 26.3541 48.0794 26.9383 47.6171 27.4165Z" fill="white"/>
<path d="M49.1776 28.0323V23.2954H52.6047V24.1683H50.1377V25.0819H52.1247V25.9413H50.1377V27.1594H52.6781V28.0323H49.1776Z" fill="white"/>
<path d="M55.1485 28.0323V23.2954H56.102L57.4555 25.2578L58.809 23.2954H59.7558V28.0323H58.809V24.7909L57.7355 26.3135H57.2021L56.1086 24.7909V28.0323H55.1485Z" fill="white"/>
<path d="M60.3806 28.0323L62.3809 23.2683H63.301L65.3013 28.0323H64.2812L63.8211 26.936H61.8475L61.3874 28.0323H60.3806ZM62.1475 26.1308H63.5144L62.8343 24.4864L62.1475 26.1308Z" fill="white"/>
<path d="M65.9183 28.0323V23.2954H67.9586C68.4609 23.2954 68.8565 23.4262 69.1454 23.6879C69.4388 23.9495 69.5855 24.2946 69.5855 24.7232C69.5855 25.1473 69.4388 25.4924 69.1454 25.7586C68.8565 26.0247 68.4609 26.1578 67.9586 26.1578H66.8784V28.0323H65.9183ZM66.8784 25.3255H67.8919C68.1231 25.3255 68.3031 25.2759 68.432 25.1766C68.5609 25.0729 68.6254 24.9262 68.6254 24.7368C68.6254 24.5473 68.5609 24.4029 68.432 24.3037C68.3031 24.1999 68.1231 24.148 67.8919 24.148H66.8784V25.3255Z" fill="white"/>
<path d="M70.3135 28.0323V23.2954H71.2736V25.1631L72.9939 23.2954H74.1674L72.1871 25.4676L74.5074 28.0323H73.2806L71.2736 25.8466V28.0323H70.3135Z" fill="white"/>
<path d="M75.0212 28.0323V23.2954H78.4483V24.1683H75.9813V25.0819H77.9683V25.9413H75.9813V27.1594H78.5217V28.0323H75.0212Z" fill="white"/>
<path d="M78.9727 23.2954H82.8867V24.1683H81.4064V28.0323H80.4463V24.1683H78.9727V23.2954Z" fill="white"/>
<path d="M83.6032 28.0323V23.2954H84.5633V26.3812L86.8236 23.2954H87.6504V28.0323H86.6969V24.9262L84.4099 28.0323H83.6032Z" fill="white"/>
<path d="M88.682 28.0323V23.2954H89.6422V25.0683H91.7491V23.2954H92.7026V28.0323H91.7491V25.9548H89.6422V28.0323H88.682Z" fill="white"/>
<path d="M93.7348 28.0323V23.2954H97.102V24.1683H94.695V28.0323H93.7348Z" fill="white"/>
<path d="M98.7643 26.7736C99.0399 27.0669 99.3844 27.2135 99.7978 27.2135C100.211 27.2135 100.553 27.0669 100.825 26.7736C101.1 26.4804 101.238 26.1105 101.238 25.6638C101.238 25.2172 101.1 24.8473 100.825 24.554C100.553 24.2608 100.211 24.1142 99.7978 24.1142C99.3844 24.1142 99.0399 24.2608 98.7643 24.554C98.4932 24.8473 98.3576 25.2172 98.3576 25.6638C98.3576 26.1105 98.4932 26.4804 98.7643 26.7736ZM101.525 27.4165C101.067 27.8902 100.491 28.1271 99.7978 28.1271C99.1044 28.1271 98.5265 27.8902 98.0642 27.4165C97.6064 26.9383 97.3774 26.3541 97.3774 25.6638C97.3774 24.9736 97.6064 24.3916 98.0642 23.9179C98.5221 23.4397 99.0999 23.2006 99.7978 23.2006C100.496 23.2006 101.074 23.4397 101.531 23.9179C101.989 24.3916 102.218 24.9736 102.218 25.6638C102.218 26.3541 101.987 26.9383 101.525 27.4165Z" fill="white"/>
<path d="M103.085 28.0323V23.2954H105.279C105.706 23.2954 106.048 23.3991 106.306 23.6067C106.563 23.8097 106.692 24.1007 106.692 24.4796C106.692 24.7142 106.632 24.915 106.512 25.0819C106.397 25.2443 106.261 25.3571 106.106 25.4202C106.363 25.4789 106.586 25.6187 106.772 25.8398C106.959 26.0608 107.052 26.3428 107.052 26.6857C107.052 27.0872 106.906 27.412 106.612 27.6601C106.319 27.9082 105.926 28.0323 105.432 28.0323H103.085ZM104.045 27.1932H105.252C105.492 27.1932 105.679 27.1413 105.812 27.0376C105.946 26.9293 106.012 26.7759 106.012 26.5774C106.012 26.3744 105.946 26.221 105.812 26.1172C105.679 26.009 105.492 25.9548 105.252 25.9548H104.045V27.1932ZM104.045 25.1495H105.125C105.325 25.1495 105.481 25.1044 105.592 25.0142C105.708 24.924 105.766 24.7977 105.766 24.6353C105.766 24.4638 105.71 24.333 105.599 24.2428C105.488 24.1525 105.33 24.1074 105.125 24.1074H104.045V25.1495Z" fill="white"/>
<path d="M108.987 26.7736C109.263 27.0669 109.607 27.2135 110.021 27.2135C110.434 27.2135 110.776 27.0669 111.047 26.7736C111.323 26.4804 111.461 26.1105 111.461 25.6638C111.461 25.2172 111.323 24.8473 111.047 24.554C110.776 24.2608 110.434 24.1142 110.021 24.1142C109.607 24.1142 109.263 24.2608 108.987 24.554C108.716 24.8473 108.58 25.2172 108.58 25.6638C108.58 26.1105 108.716 26.4804 108.987 26.7736ZM111.748 27.4165C111.29 27.8902 110.714 28.1271 110.021 28.1271C109.327 28.1271 108.749 27.8902 108.287 27.4165C107.829 26.9383 107.6 26.3541 107.6 25.6638C107.6 24.9736 107.829 24.3916 108.287 23.9179C108.745 23.4397 109.323 23.2006 110.021 23.2006C110.719 23.2006 111.296 23.4397 111.754 23.9179C112.212 24.3916 112.441 24.9736 112.441 25.6638C112.441 26.3541 112.21 26.9383 111.748 27.4165Z" fill="white"/>
<path d="M113.308 28.0323V23.2954H116.735V24.1683H114.268V25.0819H116.255V25.9413H114.268V27.1594H116.809V28.0323H113.308Z" fill="white"/>
<path d="M118.872 28.0323L120.872 23.2683H121.793L123.793 28.0323H122.773L122.313 26.936H120.339L119.879 28.0323H118.872ZM120.639 26.1308H122.006L121.326 24.4864L120.639 26.1308Z" fill="white"/>
<path d="M124.41 28.0323V23.2954H127.777V24.1683H125.37V28.0323H124.41Z" fill="white"/>
<path d="M128.525 28.0323V23.2954H131.952V24.1683H129.485V25.0819H131.472V25.9413H129.485V27.1594H132.026V28.0323H128.525Z" fill="white"/>
<path d="M132.79 28.0323V23.2954H133.75V25.0683H135.857V23.2954H136.811V28.0323H135.857V25.9548H133.75V28.0323H132.79Z" fill="white"/>
<path d="M137.529 23.2954H141.443V24.1683H139.963V28.0323H139.003V24.1683H137.529V23.2954Z" fill="white"/>
<path d="M144.182 28.1271C143.462 28.1271 142.859 27.897 142.375 27.4368C141.895 26.9721 141.655 26.3811 141.655 25.6638C141.655 24.9465 141.893 24.3578 142.368 23.8976C142.848 23.433 143.453 23.2006 144.182 23.2006C144.635 23.2006 145.046 23.2999 145.415 23.4984V24.4796C145.064 24.236 144.655 24.1142 144.188 24.1142C143.744 24.1142 143.373 24.2608 143.075 24.554C142.782 24.8473 142.635 25.2172 142.635 25.6638C142.635 26.115 142.786 26.4872 143.088 26.7804C143.391 27.0691 143.771 27.2135 144.228 27.2135C144.735 27.2135 145.162 27.0759 145.509 26.8007V27.7819C145.122 28.012 144.68 28.1271 144.182 28.1271Z" fill="white"/>
<path d="M146.014 23.2954H149.928V24.1683H148.447V28.0323H147.487V24.1683H146.014V23.2954Z" fill="white"/>
<path d="M150.644 28.0323V23.2954H152.838C153.265 23.2954 153.607 23.3991 153.865 23.6067C154.122 23.8097 154.251 24.1007 154.251 24.4796C154.251 24.7142 154.191 24.915 154.071 25.0819C153.956 25.2443 153.82 25.3571 153.665 25.4202C153.922 25.4789 154.145 25.6187 154.331 25.8398C154.518 26.0608 154.611 26.3428 154.611 26.6857C154.611 27.0872 154.465 27.412 154.171 27.6601C153.878 27.9082 153.485 28.0323 152.991 28.0323H150.644ZM151.604 27.1932H152.811C153.051 27.1932 153.238 27.1413 153.371 27.0376C153.505 26.9293 153.571 26.7759 153.571 26.5774C153.571 26.3744 153.505 26.221 153.371 26.1172C153.238 26.009 153.051 25.9548 152.811 25.9548H151.604V27.1932ZM151.604 25.1495H152.684C152.884 25.1495 153.04 25.1044 153.151 25.0142C153.267 24.924 153.325 24.7977 153.325 24.6353C153.325 24.4638 153.269 24.333 153.158 24.2428C153.047 24.1525 152.889 24.1074 152.684 24.1074H151.604V25.1495Z" fill="white"/>
<path d="M156.546 26.7736C156.822 27.0669 157.166 27.2135 157.58 27.2135C157.993 27.2135 158.335 27.0669 158.606 26.7736C158.882 26.4804 159.02 26.1105 159.02 25.6638C159.02 25.2172 158.882 24.8473 158.606 24.554C158.335 24.2608 157.993 24.1142 157.58 24.1142C157.166 24.1142 156.822 24.2608 156.546 24.554C156.275 24.8473 156.139 25.2172 156.139 25.6638C156.139 26.1105 156.275 26.4804 156.546 26.7736ZM159.307 27.4165C158.849 27.8902 158.273 28.1271 157.58 28.1271C156.886 28.1271 156.308 27.8902 155.846 27.4165C155.388 26.9383 155.159 26.3541 155.159 25.6638C155.159 24.9736 155.388 24.3916 155.846 23.9179C156.304 23.4397 156.882 23.2006 157.58 23.2006C158.278 23.2006 158.855 23.4397 159.313 23.9179C159.771 24.3916 160 24.9736 160 25.6638C160 26.3541 159.769 26.9383 159.307 27.4165Z" fill="white"/>
</svg>
