<svg width="30" height="30" viewBox="0 0 30 30" fill="none" xmlns="http://www.w3.org/2000/svg">
<mask id="path-1-inside-1_1_883" fill="white">
<path fill-rule="evenodd" clip-rule="evenodd" d="M22.3332 12.8857C22.3332 17.2409 14.6666 24.7142 14.6666 24.7142C14.6666 24.7142 7 17.2409 7 12.8857C7 8.53054 10.4325 5 14.6666 5C18.9008 5 22.3332 8.53054 22.3332 12.8857ZM16.6 12C16.6 13.1046 15.7046 14 14.6 14C13.4954 14 12.6 13.1046 12.6 12C12.6 10.8954 13.4954 10 14.6 10C15.7046 10 16.6 10.8954 16.6 12Z"/>
</mask>
<path d="M14.6666 24.7142L13.6196 25.7883L14.6666 26.8089L15.7137 25.7883L14.6666 24.7142ZM20.8332 12.8857C20.8332 13.5906 20.5027 14.603 19.8196 15.851C19.1575 17.0605 18.2559 18.3287 17.3254 19.5001C16.3993 20.6659 15.4693 21.7049 14.7689 22.4539C14.4195 22.8276 14.1291 23.1272 13.9273 23.332C13.8265 23.4344 13.748 23.513 13.6954 23.5652C13.6691 23.5913 13.6494 23.6108 13.6366 23.6234C13.6302 23.6297 13.6255 23.6343 13.6227 23.637C13.6212 23.6384 13.6203 23.6394 13.6198 23.6399C13.6195 23.6402 13.6194 23.6403 13.6193 23.6403C13.6193 23.6403 13.6194 23.6403 13.6194 23.6403C13.6195 23.6402 13.6196 23.6401 14.6666 24.7142C15.7137 25.7883 15.7138 25.7881 15.7141 25.7879C15.7142 25.7878 15.7144 25.7876 15.7146 25.7874C15.7151 25.7869 15.7156 25.7864 15.7163 25.7857C15.7176 25.7844 15.7194 25.7827 15.7217 25.7804C15.7262 25.776 15.7326 25.7698 15.7407 25.7618C15.7569 25.7459 15.7802 25.7229 15.81 25.6932C15.8698 25.6338 15.956 25.5476 16.0648 25.4371C16.2823 25.2162 16.5909 24.8979 16.9602 24.5029C17.6972 23.7146 18.6839 22.6131 19.6744 21.3661C20.6606 20.1248 21.6757 18.7081 22.4511 17.2914C23.2055 15.9133 23.8332 14.3583 23.8332 12.8857H20.8332ZM14.6666 24.7142C15.7137 23.6401 15.7138 23.6402 15.7139 23.6403C15.7139 23.6403 15.7139 23.6403 15.7139 23.6403C15.7139 23.6403 15.7137 23.6402 15.7135 23.6399C15.713 23.6394 15.712 23.6384 15.7106 23.637C15.7077 23.6343 15.7031 23.6297 15.6967 23.6234C15.6839 23.6108 15.6641 23.5913 15.6378 23.5652C15.5853 23.513 15.5067 23.4344 15.4059 23.332C15.2042 23.1272 14.9138 22.8276 14.5644 22.4539C13.8639 21.7049 12.9339 20.6659 12.0078 19.5001C11.0773 18.3287 10.1758 17.0605 9.51369 15.851C8.83055 14.603 8.5 13.5906 8.5 12.8857H5.5C5.5 14.3583 6.12778 15.9133 6.88213 17.2914C7.65755 18.7081 8.67266 20.1248 9.6588 21.3661C10.6493 22.6131 11.636 23.7146 12.3731 24.5029C12.7424 24.8979 13.0509 25.2162 13.2685 25.4371C13.3773 25.5476 13.4635 25.6338 13.5232 25.6932C13.5531 25.7229 13.5764 25.7459 13.5926 25.7618C13.6007 25.7698 13.607 25.776 13.6116 25.7804C13.6138 25.7827 13.6156 25.7844 13.617 25.7857C13.6176 25.7864 13.6182 25.7869 13.6186 25.7874C13.6188 25.7876 13.6191 25.7878 13.6192 25.7879C13.6194 25.7881 13.6196 25.7883 14.6666 24.7142ZM8.5 12.8857C8.5 9.31885 11.3004 6.5 14.6666 6.5V3.5C9.56449 3.5 5.5 7.74222 5.5 12.8857H8.5ZM14.6666 6.5C18.0328 6.5 20.8332 9.31885 20.8332 12.8857H23.8332C23.8332 7.74222 19.7688 3.5 14.6666 3.5V6.5ZM14.6 15.5C16.533 15.5 18.1 13.933 18.1 12H15.1C15.1 12.2761 14.8761 12.5 14.6 12.5V15.5ZM18.1 12C18.1 10.067 16.533 8.5 14.6 8.5V11.5C14.8761 11.5 15.1 11.7239 15.1 12H18.1ZM14.6 8.5C12.667 8.5 11.1 10.067 11.1 12H14.1C14.1 11.7239 14.3239 11.5 14.6 11.5V8.5ZM11.1 12C11.1 13.933 12.667 15.5 14.6 15.5V12.5C14.3239 12.5 14.1 12.2761 14.1 12H11.1Z" fill="white" mask="url(#path-1-inside-1_1_883)"/>
</svg>
