<svg width="216" height="41" viewBox="0 0 216 41" fill="none" xmlns="http://www.w3.org/2000/svg">
<mask id="path-1-outside-1_1_874" maskUnits="userSpaceOnUse" x="-0.277344" y="1.75146" width="215" height="21" fill="black">
<rect fill="white" x="-0.277344" y="1.75146" width="215" height="21"/>
<path d="M4.03445 8.33117C4.04426 9.5389 5.29539 10.1428 7.78782 10.1428H17.9882V4.2877C17.9882 3.48576 18.3954 3.0848 19.2098 3.0848H20.0635C20.8682 3.0848 21.2705 3.48576 21.2705 4.2877L21.2558 16.5196C21.2558 17.3119 20.8535 17.708 20.0488 17.708H19.1951C18.3905 17.708 17.9882 17.3119 17.9882 16.5196V12.8239L7.24321 12.8094C5.4573 12.8094 3.9952 12.5003 2.85692 11.8819C1.43408 11.109 0.722656 9.91089 0.722656 8.2877L0.737375 4.2877C0.737375 3.48576 1.1397 3.0848 1.94434 3.0848H2.79805C3.59288 3.0848 3.9952 3.48576 4.00501 4.2877L4.03445 8.33117Z"/>
<path d="M26.9668 17.708H27.9824C28.2375 17.708 28.4731 17.6307 28.6889 17.4761L43.04 7.11378V16.5051C43.04 17.307 43.4473 17.708 44.2617 17.708H45.0713C45.8857 17.708 46.293 17.307 46.293 16.5051V4.14277C46.293 3.43746 45.8318 3.0848 44.9094 3.0848H43.9232C43.6681 3.0848 43.4277 3.16692 43.202 3.33117L28.8656 13.65V4.2877C28.8656 3.48576 28.4583 3.0848 27.6439 3.0848H26.8343C26.0199 3.0848 25.6126 3.48576 25.6126 4.2877V16.621C25.6126 17.3457 26.064 17.708 26.9668 17.708Z"/>
<path d="M71.7128 16.5051C71.7128 17.307 71.2075 17.708 70.1968 17.708H58.0977C55.8702 17.708 54.1971 17.4906 53.0785 17.0558C51.322 16.3698 50.4438 15.1138 50.4438 13.2877V7.51958C50.4438 4.56306 52.7694 3.0848 57.4206 3.0848H70.3734C71.1879 3.0848 71.5951 3.48576 71.5951 4.2877V4.60654C71.5951 5.39881 71.1879 5.79494 70.3734 5.79494H57.6414C56.5129 5.79494 55.6936 5.85775 55.1833 5.98335C54.202 6.22489 53.7114 6.70799 53.7114 7.43262V13.1573C53.7114 14.394 55.2029 15.0123 58.186 15.0123H70.4912C71.3056 15.0123 71.7128 15.4133 71.7128 16.2152V16.5051Z"/>
<path d="M90.9949 4.2732V4.57755C90.9949 5.37948 90.5876 5.78045 89.7732 5.78045H84.3271V16.5051C84.3271 17.307 83.9248 17.708 83.1201 17.708H82.2664C81.4618 17.708 81.0595 17.307 81.0595 16.5051V5.78045H75.6134C74.7989 5.78045 74.3917 5.37948 74.3917 4.57755V4.2732C74.3917 3.48093 74.7989 3.0848 75.6134 3.0848H89.7732C90.5876 3.0848 90.9949 3.48093 90.9949 4.2732Z"/>
<path d="M114.266 13.1718C114.266 14.8626 113.392 16.1041 111.646 16.8964C110.458 17.4375 108.913 17.708 107.009 17.708H101.578C98.0747 17.708 95.754 16.8529 94.6158 15.1428C94.2036 14.5244 93.9976 13.8674 93.9976 13.1718V7.78045C93.9976 6.59204 94.5618 5.56306 95.6902 4.69349C97.0738 3.62103 99.0315 3.0848 101.563 3.0848H107.009C111.847 3.0848 114.266 4.64035 114.266 7.75146V13.1718ZM110.939 13.1718V7.53407C110.939 6.37465 109.6 5.79494 106.921 5.79494H101.607C100.646 5.79494 99.7772 5.91089 99.002 6.14277C97.8441 6.4906 97.2652 7.03649 97.2652 7.78045V13.1718C97.2652 13.8867 97.854 14.3988 99.0315 14.708C99.7969 14.9109 100.66 15.0123 101.622 15.0123H106.936C107.78 15.0123 108.579 14.8964 109.335 14.6645C110.404 14.336 110.939 13.8384 110.939 13.1718Z"/>
<path d="M133.665 4.60654C133.665 5.39881 133.258 5.79494 132.444 5.79494H125.261C124.054 5.79494 123.259 5.84808 122.876 5.95436C122.023 6.19591 121.596 6.75146 121.596 7.62103V16.5051C121.596 17.307 121.194 17.708 120.389 17.708H119.491C118.686 17.708 118.284 17.3022 118.284 16.4906V7.62103C118.284 6.03649 118.873 4.82393 120.05 3.98335C120.58 3.60654 121.272 3.35533 122.126 3.22973C122.783 3.13311 123.892 3.0848 125.452 3.0848H132.444C133.258 3.0848 133.665 3.48576 133.665 4.2877V4.60654Z"/>
<path d="M157.187 13.0558C157.187 16.08 154.832 17.592 150.121 17.592H139.921V20.5631C139.921 21.3553 139.519 21.7515 138.714 21.7515H137.86C137.056 21.7515 136.653 21.3553 136.653 20.5631V7.43262C136.653 5.65485 137.502 4.42779 139.2 3.75146C140.319 3.30702 141.957 3.0848 144.116 3.0848H149.327C154.567 3.0848 157.187 4.51958 157.187 7.38915V13.0558ZM153.875 13.0993V7.43262C153.875 6.65968 153.266 6.15726 152.05 5.92538C151.539 5.82876 150.642 5.78045 149.356 5.78045H144.263C141.368 5.78045 139.921 6.35533 139.921 7.50509V14.9109H150.121C152.624 14.9109 153.875 14.307 153.875 13.0993Z"/>
<path d="M182.974 13.3167C182.974 16.2442 180.742 17.708 176.277 17.708H168.285C167.51 17.708 166.666 17.6017 165.753 17.3891C162.79 16.7032 161.308 15.3988 161.308 13.4761V11.6065C161.308 10.0896 162.113 8.9447 163.722 8.17175C164.948 7.58238 166.43 7.2877 168.167 7.2877H179.736C179.569 6.29253 178.284 5.79494 175.88 5.79494H173.407C172.602 5.79494 172.2 5.39881 172.2 4.60654V4.2877C172.2 3.48576 172.602 3.0848 173.407 3.0848H175.203C180.384 3.0848 182.974 4.58238 182.974 7.57755V13.3167ZM179.707 13.4761V9.99784H168.093C167.475 9.99784 166.803 10.109 166.077 10.3312C165.076 10.6404 164.576 11.0606 164.576 11.592V13.4471C164.576 14.0558 165.159 14.4858 166.327 14.737C166.729 14.8239 167.353 14.9157 168.197 15.0123H176.307C178.573 15.0123 179.707 14.5003 179.707 13.4761Z"/>
<path d="M192.88 15.0123L199.931 6.33118L206.908 15.0123H192.88ZM201.462 3.37465C201.118 2.95919 200.603 2.75146 199.916 2.75146C199.239 2.75146 198.739 2.94953 198.415 3.34567L188.847 15.0123H187.302C186.487 15.0123 186.08 15.4133 186.08 16.2152V16.5196C186.08 17.3119 186.487 17.708 187.302 17.708H212.501C213.315 17.708 213.723 17.3119 213.723 16.5196V16.2152C213.723 15.4133 213.315 15.0123 212.501 15.0123H210.955L201.462 3.37465Z"/>
</mask>
<path d="M4.03445 8.33117C4.04426 9.5389 5.29539 10.1428 7.78782 10.1428H17.9882V4.2877C17.9882 3.48576 18.3954 3.0848 19.2098 3.0848H20.0635C20.8682 3.0848 21.2705 3.48576 21.2705 4.2877L21.2558 16.5196C21.2558 17.3119 20.8535 17.708 20.0488 17.708H19.1951C18.3905 17.708 17.9882 17.3119 17.9882 16.5196V12.8239L7.24321 12.8094C5.4573 12.8094 3.9952 12.5003 2.85692 11.8819C1.43408 11.109 0.722656 9.91089 0.722656 8.2877L0.737375 4.2877C0.737375 3.48576 1.1397 3.0848 1.94434 3.0848H2.79805C3.59288 3.0848 3.9952 3.48576 4.00501 4.2877L4.03445 8.33117Z" fill="#DC2B1B"/>
<path d="M26.9668 17.708H27.9824C28.2375 17.708 28.4731 17.6307 28.6889 17.4761L43.04 7.11378V16.5051C43.04 17.307 43.4473 17.708 44.2617 17.708H45.0713C45.8857 17.708 46.293 17.307 46.293 16.5051V4.14277C46.293 3.43746 45.8318 3.0848 44.9094 3.0848H43.9232C43.6681 3.0848 43.4277 3.16692 43.202 3.33117L28.8656 13.65V4.2877C28.8656 3.48576 28.4583 3.0848 27.6439 3.0848H26.8343C26.0199 3.0848 25.6126 3.48576 25.6126 4.2877V16.621C25.6126 17.3457 26.064 17.708 26.9668 17.708Z" fill="#DC2B1B"/>
<path d="M71.7128 16.5051C71.7128 17.307 71.2075 17.708 70.1968 17.708H58.0977C55.8702 17.708 54.1971 17.4906 53.0785 17.0558C51.322 16.3698 50.4438 15.1138 50.4438 13.2877V7.51958C50.4438 4.56306 52.7694 3.0848 57.4206 3.0848H70.3734C71.1879 3.0848 71.5951 3.48576 71.5951 4.2877V4.60654C71.5951 5.39881 71.1879 5.79494 70.3734 5.79494H57.6414C56.5129 5.79494 55.6936 5.85775 55.1833 5.98335C54.202 6.22489 53.7114 6.70799 53.7114 7.43262V13.1573C53.7114 14.394 55.2029 15.0123 58.186 15.0123H70.4912C71.3056 15.0123 71.7128 15.4133 71.7128 16.2152V16.5051Z" fill="#DC2B1B"/>
<path d="M90.9949 4.2732V4.57755C90.9949 5.37948 90.5876 5.78045 89.7732 5.78045H84.3271V16.5051C84.3271 17.307 83.9248 17.708 83.1201 17.708H82.2664C81.4618 17.708 81.0595 17.307 81.0595 16.5051V5.78045H75.6134C74.7989 5.78045 74.3917 5.37948 74.3917 4.57755V4.2732C74.3917 3.48093 74.7989 3.0848 75.6134 3.0848H89.7732C90.5876 3.0848 90.9949 3.48093 90.9949 4.2732Z" fill="#DC2B1B"/>
<path d="M114.266 13.1718C114.266 14.8626 113.392 16.1041 111.646 16.8964C110.458 17.4375 108.913 17.708 107.009 17.708H101.578C98.0747 17.708 95.754 16.8529 94.6158 15.1428C94.2036 14.5244 93.9976 13.8674 93.9976 13.1718V7.78045C93.9976 6.59204 94.5618 5.56306 95.6902 4.69349C97.0738 3.62103 99.0315 3.0848 101.563 3.0848H107.009C111.847 3.0848 114.266 4.64035 114.266 7.75146V13.1718ZM110.939 13.1718V7.53407C110.939 6.37465 109.6 5.79494 106.921 5.79494H101.607C100.646 5.79494 99.7772 5.91089 99.002 6.14277C97.8441 6.4906 97.2652 7.03649 97.2652 7.78045V13.1718C97.2652 13.8867 97.854 14.3988 99.0315 14.708C99.7969 14.9109 100.66 15.0123 101.622 15.0123H106.936C107.78 15.0123 108.579 14.8964 109.335 14.6645C110.404 14.336 110.939 13.8384 110.939 13.1718Z" fill="#DC2B1B"/>
<path d="M133.665 4.60654C133.665 5.39881 133.258 5.79494 132.444 5.79494H125.261C124.054 5.79494 123.259 5.84808 122.876 5.95436C122.023 6.19591 121.596 6.75146 121.596 7.62103V16.5051C121.596 17.307 121.194 17.708 120.389 17.708H119.491C118.686 17.708 118.284 17.3022 118.284 16.4906V7.62103C118.284 6.03649 118.873 4.82393 120.05 3.98335C120.58 3.60654 121.272 3.35533 122.126 3.22973C122.783 3.13311 123.892 3.0848 125.452 3.0848H132.444C133.258 3.0848 133.665 3.48576 133.665 4.2877V4.60654Z" fill="#DC2B1B"/>
<path d="M157.187 13.0558C157.187 16.08 154.832 17.592 150.121 17.592H139.921V20.5631C139.921 21.3553 139.519 21.7515 138.714 21.7515H137.86C137.056 21.7515 136.653 21.3553 136.653 20.5631V7.43262C136.653 5.65485 137.502 4.42779 139.2 3.75146C140.319 3.30702 141.957 3.0848 144.116 3.0848H149.327C154.567 3.0848 157.187 4.51958 157.187 7.38915V13.0558ZM153.875 13.0993V7.43262C153.875 6.65968 153.266 6.15726 152.05 5.92538C151.539 5.82876 150.642 5.78045 149.356 5.78045H144.263C141.368 5.78045 139.921 6.35533 139.921 7.50509V14.9109H150.121C152.624 14.9109 153.875 14.307 153.875 13.0993Z" fill="#DC2B1B"/>
<path d="M182.974 13.3167C182.974 16.2442 180.742 17.708 176.277 17.708H168.285C167.51 17.708 166.666 17.6017 165.753 17.3891C162.79 16.7032 161.308 15.3988 161.308 13.4761V11.6065C161.308 10.0896 162.113 8.9447 163.722 8.17175C164.948 7.58238 166.43 7.2877 168.167 7.2877H179.736C179.569 6.29253 178.284 5.79494 175.88 5.79494H173.407C172.602 5.79494 172.2 5.39881 172.2 4.60654V4.2877C172.2 3.48576 172.602 3.0848 173.407 3.0848H175.203C180.384 3.0848 182.974 4.58238 182.974 7.57755V13.3167ZM179.707 13.4761V9.99784H168.093C167.475 9.99784 166.803 10.109 166.077 10.3312C165.076 10.6404 164.576 11.0606 164.576 11.592V13.4471C164.576 14.0558 165.159 14.4858 166.327 14.737C166.729 14.8239 167.353 14.9157 168.197 15.0123H176.307C178.573 15.0123 179.707 14.5003 179.707 13.4761Z" fill="#DC2B1B"/>
<path d="M192.88 15.0123L199.931 6.33118L206.908 15.0123H192.88ZM201.462 3.37465C201.118 2.95919 200.603 2.75146 199.916 2.75146C199.239 2.75146 198.739 2.94953 198.415 3.34567L188.847 15.0123H187.302C186.487 15.0123 186.08 15.4133 186.08 16.2152V16.5196C186.08 17.3119 186.487 17.708 187.302 17.708H212.501C213.315 17.708 213.723 17.3119 213.723 16.5196V16.2152C213.723 15.4133 213.315 15.0123 212.501 15.0123H210.955L201.462 3.37465Z" fill="#DC2B1B"/>
<path d="M4.03445 8.33117C4.04426 9.5389 5.29539 10.1428 7.78782 10.1428H17.9882V4.2877C17.9882 3.48576 18.3954 3.0848 19.2098 3.0848H20.0635C20.8682 3.0848 21.2705 3.48576 21.2705 4.2877L21.2558 16.5196C21.2558 17.3119 20.8535 17.708 20.0488 17.708H19.1951C18.3905 17.708 17.9882 17.3119 17.9882 16.5196V12.8239L7.24321 12.8094C5.4573 12.8094 3.9952 12.5003 2.85692 11.8819C1.43408 11.109 0.722656 9.91089 0.722656 8.2877L0.737375 4.2877C0.737375 3.48576 1.1397 3.0848 1.94434 3.0848H2.79805C3.59288 3.0848 3.9952 3.48576 4.00501 4.2877L4.03445 8.33117Z" stroke="#DC2B1B" stroke-width="0.825478" mask="url(#path-1-outside-1_1_874)"/>
<path d="M26.9668 17.708H27.9824C28.2375 17.708 28.4731 17.6307 28.6889 17.4761L43.04 7.11378V16.5051C43.04 17.307 43.4473 17.708 44.2617 17.708H45.0713C45.8857 17.708 46.293 17.307 46.293 16.5051V4.14277C46.293 3.43746 45.8318 3.0848 44.9094 3.0848H43.9232C43.6681 3.0848 43.4277 3.16692 43.202 3.33117L28.8656 13.65V4.2877C28.8656 3.48576 28.4583 3.0848 27.6439 3.0848H26.8343C26.0199 3.0848 25.6126 3.48576 25.6126 4.2877V16.621C25.6126 17.3457 26.064 17.708 26.9668 17.708Z" stroke="#DC2B1B" stroke-width="0.825478" mask="url(#path-1-outside-1_1_874)"/>
<path d="M71.7128 16.5051C71.7128 17.307 71.2075 17.708 70.1968 17.708H58.0977C55.8702 17.708 54.1971 17.4906 53.0785 17.0558C51.322 16.3698 50.4438 15.1138 50.4438 13.2877V7.51958C50.4438 4.56306 52.7694 3.0848 57.4206 3.0848H70.3734C71.1879 3.0848 71.5951 3.48576 71.5951 4.2877V4.60654C71.5951 5.39881 71.1879 5.79494 70.3734 5.79494H57.6414C56.5129 5.79494 55.6936 5.85775 55.1833 5.98335C54.202 6.22489 53.7114 6.70799 53.7114 7.43262V13.1573C53.7114 14.394 55.2029 15.0123 58.186 15.0123H70.4912C71.3056 15.0123 71.7128 15.4133 71.7128 16.2152V16.5051Z" stroke="#DC2B1B" stroke-width="0.825478" mask="url(#path-1-outside-1_1_874)"/>
<path d="M90.9949 4.2732V4.57755C90.9949 5.37948 90.5876 5.78045 89.7732 5.78045H84.3271V16.5051C84.3271 17.307 83.9248 17.708 83.1201 17.708H82.2664C81.4618 17.708 81.0595 17.307 81.0595 16.5051V5.78045H75.6134C74.7989 5.78045 74.3917 5.37948 74.3917 4.57755V4.2732C74.3917 3.48093 74.7989 3.0848 75.6134 3.0848H89.7732C90.5876 3.0848 90.9949 3.48093 90.9949 4.2732Z" stroke="#DC2B1B" stroke-width="0.825478" mask="url(#path-1-outside-1_1_874)"/>
<path d="M114.266 13.1718C114.266 14.8626 113.392 16.1041 111.646 16.8964C110.458 17.4375 108.913 17.708 107.009 17.708H101.578C98.0747 17.708 95.754 16.8529 94.6158 15.1428C94.2036 14.5244 93.9976 13.8674 93.9976 13.1718V7.78045C93.9976 6.59204 94.5618 5.56306 95.6902 4.69349C97.0738 3.62103 99.0315 3.0848 101.563 3.0848H107.009C111.847 3.0848 114.266 4.64035 114.266 7.75146V13.1718ZM110.939 13.1718V7.53407C110.939 6.37465 109.6 5.79494 106.921 5.79494H101.607C100.646 5.79494 99.7772 5.91089 99.002 6.14277C97.8441 6.4906 97.2652 7.03649 97.2652 7.78045V13.1718C97.2652 13.8867 97.854 14.3988 99.0315 14.708C99.7969 14.9109 100.66 15.0123 101.622 15.0123H106.936C107.78 15.0123 108.579 14.8964 109.335 14.6645C110.404 14.336 110.939 13.8384 110.939 13.1718Z" stroke="#DC2B1B" stroke-width="0.825478" mask="url(#path-1-outside-1_1_874)"/>
<path d="M133.665 4.60654C133.665 5.39881 133.258 5.79494 132.444 5.79494H125.261C124.054 5.79494 123.259 5.84808 122.876 5.95436C122.023 6.19591 121.596 6.75146 121.596 7.62103V16.5051C121.596 17.307 121.194 17.708 120.389 17.708H119.491C118.686 17.708 118.284 17.3022 118.284 16.4906V7.62103C118.284 6.03649 118.873 4.82393 120.05 3.98335C120.58 3.60654 121.272 3.35533 122.126 3.22973C122.783 3.13311 123.892 3.0848 125.452 3.0848H132.444C133.258 3.0848 133.665 3.48576 133.665 4.2877V4.60654Z" stroke="#DC2B1B" stroke-width="0.825478" mask="url(#path-1-outside-1_1_874)"/>
<path d="M157.187 13.0558C157.187 16.08 154.832 17.592 150.121 17.592H139.921V20.5631C139.921 21.3553 139.519 21.7515 138.714 21.7515H137.86C137.056 21.7515 136.653 21.3553 136.653 20.5631V7.43262C136.653 5.65485 137.502 4.42779 139.2 3.75146C140.319 3.30702 141.957 3.0848 144.116 3.0848H149.327C154.567 3.0848 157.187 4.51958 157.187 7.38915V13.0558ZM153.875 13.0993V7.43262C153.875 6.65968 153.266 6.15726 152.05 5.92538C151.539 5.82876 150.642 5.78045 149.356 5.78045H144.263C141.368 5.78045 139.921 6.35533 139.921 7.50509V14.9109H150.121C152.624 14.9109 153.875 14.307 153.875 13.0993Z" stroke="#DC2B1B" stroke-width="0.825478" mask="url(#path-1-outside-1_1_874)"/>
<path d="M182.974 13.3167C182.974 16.2442 180.742 17.708 176.277 17.708H168.285C167.51 17.708 166.666 17.6017 165.753 17.3891C162.79 16.7032 161.308 15.3988 161.308 13.4761V11.6065C161.308 10.0896 162.113 8.9447 163.722 8.17175C164.948 7.58238 166.43 7.2877 168.167 7.2877H179.736C179.569 6.29253 178.284 5.79494 175.88 5.79494H173.407C172.602 5.79494 172.2 5.39881 172.2 4.60654V4.2877C172.2 3.48576 172.602 3.0848 173.407 3.0848H175.203C180.384 3.0848 182.974 4.58238 182.974 7.57755V13.3167ZM179.707 13.4761V9.99784H168.093C167.475 9.99784 166.803 10.109 166.077 10.3312C165.076 10.6404 164.576 11.0606 164.576 11.592V13.4471C164.576 14.0558 165.159 14.4858 166.327 14.737C166.729 14.8239 167.353 14.9157 168.197 15.0123H176.307C178.573 15.0123 179.707 14.5003 179.707 13.4761Z" stroke="#DC2B1B" stroke-width="0.825478" mask="url(#path-1-outside-1_1_874)"/>
<path d="M192.88 15.0123L199.931 6.33118L206.908 15.0123H192.88ZM201.462 3.37465C201.118 2.95919 200.603 2.75146 199.916 2.75146C199.239 2.75146 198.739 2.94953 198.415 3.34567L188.847 15.0123H187.302C186.487 15.0123 186.08 15.4133 186.08 16.2152V16.5196C186.08 17.3119 186.487 17.708 187.302 17.708H212.501C213.315 17.708 213.723 17.3119 213.723 16.5196V16.2152C213.723 15.4133 213.315 15.0123 212.501 15.0123H210.955L201.462 3.37465Z" stroke="#DC2B1B" stroke-width="0.825478" mask="url(#path-1-outside-1_1_874)"/>
<path d="M9.35007 36.125C9.36043 36.1771 9.36561 36.231 9.36561 36.2866C9.36561 36.4674 9.30515 36.6135 9.18421 36.7247C9.06327 36.836 8.91124 36.8916 8.72811 36.8916C8.53807 36.8916 8.36703 36.7803 8.215 36.5578L7.14212 34.9829H2.03172L0.958848 36.5578C0.924295 36.6239 0.89147 36.6708 0.860372 36.6986C0.784355 36.7717 0.692789 36.8082 0.585675 36.8082C0.354169 36.8082 0.183131 36.7247 0.0725615 36.5578C0.0241872 36.4848 0 36.4153 0 36.3492C0 36.304 0.00691062 36.2675 0.0207319 36.2397L3.85094 30.3466C4.0168 30.0928 4.26385 29.9729 4.59211 29.9868C4.98256 30.0007 5.21579 30.1206 5.29181 30.3466L9.35007 36.125ZM6.43206 33.9763L4.59211 31.2488L2.74179 33.9763H6.43206Z" fill="white"/>
<path d="M18.6379 34.9672C18.6379 35.7356 18.2181 36.2571 17.3785 36.5318C17.1228 36.6152 16.8222 36.676 16.4766 36.7143C16.2866 36.7351 16.1207 36.7456 15.9791 36.7456H10.8376C10.5542 36.7456 10.4126 36.6013 10.4126 36.3127V30.4874C10.4126 30.2023 10.5542 30.0598 10.8376 30.0598H15.8288C16.392 30.0598 16.8204 30.0928 17.1141 30.1589C17.5322 30.2527 17.8812 30.4318 18.1611 30.696C18.479 30.9916 18.6379 31.341 18.6379 31.7443V32.2606C18.6379 32.6639 18.4963 32.9994 18.2129 33.2671C18.1715 33.3053 18.1507 33.3488 18.1507 33.3975C18.1507 33.4288 18.1611 33.4635 18.1818 33.5018L18.2129 33.5487C18.4963 33.8129 18.6379 34.1467 18.6379 34.55V34.9672ZM17.4562 32.3127L17.4251 31.7495C17.4009 31.2871 16.8775 31.0559 15.8547 31.0559H11.6513V32.9333H15.9013C16.6511 32.9333 17.1366 32.8116 17.3577 32.5683C17.4268 32.4918 17.4597 32.4066 17.4562 32.3127ZM17.4251 34.5709C17.432 34.1467 16.931 33.9346 15.9221 33.9346H11.6254V35.7443H15.8391C16.7755 35.7443 17.3007 35.5339 17.4148 35.1132L17.4251 34.5709Z" fill="white"/>
<path d="M26.8529 30.623C26.8529 30.9116 26.7095 31.0559 26.4227 31.0559H23.738V36.3127C23.738 36.6013 23.5963 36.7456 23.313 36.7456H22.9553C22.672 36.7456 22.5303 36.6013 22.5303 36.3127V31.0559H19.8611C19.5743 31.0559 19.4309 30.9116 19.4309 30.623V30.4874C19.4309 30.2023 19.5743 30.0598 19.8611 30.0598H26.4227C26.7095 30.0598 26.8529 30.2023 26.8529 30.4874V30.623Z" fill="white"/>
<path d="M35.5914 34.9516C35.5914 36.1476 34.5652 36.7456 32.5127 36.7456H30.6261C29.1576 36.7456 28.2109 36.417 27.7859 35.7599C27.6304 35.52 27.5526 35.2523 27.5526 34.9568V31.8747C27.5526 30.6647 28.5754 30.0598 30.6209 30.0598H32.5127C33.4353 30.0598 34.1143 30.145 34.5496 30.3153C35.2441 30.5865 35.5914 31.1063 35.5914 31.8747V34.9516ZM34.3786 34.9255V31.9007C34.3786 31.3375 33.7653 31.0559 32.5386 31.0559H30.6158C29.3822 31.0559 28.7654 31.3375 28.7654 31.9007V34.9255C28.7654 35.4713 29.3822 35.7443 30.6158 35.7443H32.5438C33.767 35.7443 34.3786 35.4713 34.3786 34.9255Z" fill="white"/>
<path d="M48.186 36.3127C48.186 36.6013 48.0443 36.7456 47.761 36.7456H47.3982C47.1149 36.7456 46.9732 36.6013 46.9732 36.3127V31.9894L43.4021 36.4222C43.2121 36.6587 42.9564 36.7769 42.6351 36.7769C42.3103 36.7769 42.0511 36.6587 41.8576 36.4222L38.2192 31.9685V36.3127C38.2192 36.6013 38.0758 36.7456 37.789 36.7456H37.4314C37.148 36.7456 37.0064 36.6013 37.0064 36.3127V30.7012C37.0064 30.517 37.0806 30.364 37.2292 30.2423C37.3674 30.1276 37.5316 30.0702 37.7216 30.0702C37.9808 30.0702 38.2036 30.1815 38.3902 30.404L42.6454 35.4679L46.8022 30.3936C46.9715 30.1884 47.2099 30.0859 47.5174 30.0859C47.9631 30.0859 48.186 30.3084 48.186 30.7534V36.3127Z" fill="white"/>
<path d="M57.6397 34.9516C57.6397 36.1476 56.6135 36.7456 54.5611 36.7456H52.6745C51.2059 36.7456 50.2592 36.417 49.8342 35.7599C49.6787 35.52 49.601 35.2523 49.601 34.9568V31.8747C49.601 30.6647 50.6237 30.0598 52.6693 30.0598H54.5611C55.4836 30.0598 56.1626 30.145 56.598 30.3153C57.2925 30.5865 57.6397 31.1063 57.6397 31.8747V34.9516ZM56.4269 34.9255V31.9007C56.4269 31.3375 55.8136 31.0559 54.587 31.0559H52.6641C51.4305 31.0559 50.8138 31.3375 50.8138 31.9007V34.9255C50.8138 35.4713 51.4305 35.7443 52.6641 35.7443H54.5922C55.8153 35.7443 56.4269 35.4713 56.4269 34.9255Z" fill="white"/>
<path d="M67.3993 34.6282V35.0454C67.3993 35.8208 66.9794 36.3458 66.1398 36.6204C66.043 36.6517 65.9048 36.6743 65.7252 36.6882L65.238 36.7247C65.0514 36.7386 64.8855 36.7456 64.7404 36.7456H59.5989C59.3156 36.7456 59.1739 36.6013 59.1739 36.3127V31.7599C59.1739 31.148 59.5488 30.6821 60.2986 30.3623C60.7789 30.1571 61.3559 30.0546 62.0297 30.0546H63.2114C63.4948 30.0546 63.6364 30.1971 63.6364 30.4822V30.6178C63.6364 30.9064 63.4948 31.0507 63.2114 31.0507H61.9831L61.6462 31.0715C60.8238 31.1237 60.4126 31.3531 60.4126 31.7599V32.9333H64.6627C65.7303 32.9333 66.5009 33.1645 66.9743 33.6269C67.2576 33.9051 67.3993 34.2388 67.3993 34.6282ZM66.1864 34.6491C66.1864 34.1728 65.6854 33.9346 64.6834 33.9346H60.3867V35.7443H64.6005C65.5576 35.7443 66.0862 35.56 66.1864 35.1915V34.6491Z" fill="white"/>
<path d="M77.024 30.7586V36.3023C77.024 36.5874 76.8806 36.7299 76.5938 36.7299H76.2414C75.9546 36.7299 75.8112 36.5874 75.8112 36.3023V31.6452L70.1773 36.4275C70.1048 36.49 70.0201 36.5491 69.9234 36.6048C69.7229 36.723 69.5554 36.7821 69.4206 36.7821C69.3066 36.7821 69.2029 36.7543 69.1096 36.6986C68.9023 36.577 68.7987 36.4414 68.7987 36.2919V30.477C68.7987 30.1884 68.9403 30.0441 69.2237 30.0441H69.5813C69.8681 30.0441 70.0115 30.1884 70.0115 30.477V35.1602L75.7697 30.3205C75.8907 30.2197 75.9529 30.1676 75.9563 30.1641C76.0911 30.0598 76.1792 30.0076 76.2206 30.0076C76.4833 30.0076 76.6716 30.0476 76.7856 30.1276C76.9445 30.2388 77.024 30.4492 77.024 30.7586Z" fill="white"/>
<path d="M87.2241 36.0676C87.3036 36.1789 87.3433 36.2884 87.3433 36.3962C87.3433 36.5978 87.1861 36.7125 86.8717 36.7404C86.8578 36.7438 86.8388 36.7456 86.8146 36.7456H86.7265C86.4328 36.7456 86.2428 36.683 86.1564 36.5578L82.5594 31.4001L78.9417 36.5578C78.8553 36.683 78.6618 36.7456 78.3612 36.7456C78.3267 36.7421 78.299 36.7404 78.2783 36.7404H78.2265C77.912 36.7404 77.7548 36.6274 77.7548 36.4014C77.7548 36.2971 77.7963 36.1858 77.8792 36.0676L81.8338 30.4561C81.896 30.3657 81.9547 30.2979 82.01 30.2527C82.1655 30.1206 82.3487 30.0546 82.5594 30.0546C82.8462 30.0546 83.0846 30.1902 83.2747 30.4614L87.2241 36.0676Z" fill="white"/>
<path d="M96.315 34.2162V35.2541C96.315 35.5739 96.2096 35.8416 95.9988 36.0572C95.8503 36.2102 95.6015 36.3684 95.2525 36.5318C95.0141 36.643 94.7394 36.7108 94.4284 36.7351C94.3386 36.7421 94.0362 36.7456 93.5214 36.7456H88.4732C88.1898 36.7456 88.0482 36.603 88.0482 36.3179V30.4926C88.0482 30.2041 88.1898 30.0598 88.4732 30.0598H88.8308C89.1176 30.0598 89.261 30.2041 89.261 30.4926V32.4431H93.4644C94.2176 32.4431 94.8361 32.5526 95.3199 32.7717C95.9833 33.0707 96.315 33.5522 96.315 34.2162ZM95.1126 34.258C95.1126 33.9346 94.9536 33.7104 94.6357 33.5852C94.3973 33.4913 94.0311 33.4444 93.5369 33.4444H89.261V35.7495H93.5318C94.5856 35.7495 95.1126 35.5565 95.1126 35.1706V34.258Z" fill="white"/>
<path d="M105.971 36.3127C105.971 36.6013 105.827 36.7456 105.541 36.7456H105.199C104.912 36.7456 104.768 36.6013 104.768 36.3127V33.9346H98.9013V36.3127C98.9013 36.6013 98.7579 36.7456 98.4711 36.7456H98.1135C97.8302 36.7456 97.6885 36.6013 97.6885 36.3127V30.4874C97.6885 30.2023 97.8302 30.0598 98.1135 30.0598H98.4711C98.7579 30.0598 98.9013 30.2023 98.9013 30.4874V32.9333H104.768V30.4874C104.768 30.2023 104.912 30.0598 105.199 30.0598H105.541C105.827 30.0598 105.971 30.2023 105.971 30.4874V36.3127Z" fill="white"/>
<path d="M115.668 34.2162V35.2541C115.668 35.5739 115.563 35.8416 115.352 36.0572C115.203 36.2102 114.955 36.3684 114.606 36.5318C114.367 36.643 114.093 36.7108 113.782 36.7351C113.692 36.7421 113.389 36.7456 112.875 36.7456H107.826C107.543 36.7456 107.401 36.603 107.401 36.3179V30.4926C107.401 30.2041 107.543 30.0598 107.826 30.0598H108.184C108.471 30.0598 108.614 30.2041 108.614 30.4926V32.4431H112.818C113.571 32.4431 114.189 32.5526 114.673 32.7717C115.336 33.0707 115.668 33.5522 115.668 34.2162ZM114.466 34.258C114.466 33.9346 114.307 33.7104 113.989 33.5852C113.75 33.4913 113.384 33.4444 112.89 33.4444H108.614V35.7495H112.885C113.939 35.7495 114.466 35.5565 114.466 35.1706V34.258ZM117.477 36.3127V30.4874C117.477 30.2023 117.334 30.0598 117.047 30.0598H116.689C116.406 30.0598 116.264 30.2023 116.264 30.4874V36.3127C116.264 36.6013 116.406 36.7456 116.689 36.7456H117.047C117.334 36.7456 117.477 36.6013 117.477 36.3127Z" fill="white"/>
<path d="M127.091 30.7586V36.3023C127.091 36.5874 126.948 36.7299 126.661 36.7299H126.309C126.022 36.7299 125.879 36.5874 125.879 36.3023V31.6452L120.245 36.4275C120.172 36.49 120.088 36.5491 119.991 36.6048C119.79 36.723 119.623 36.7821 119.488 36.7821C119.374 36.7821 119.27 36.7543 119.177 36.6986C118.97 36.577 118.866 36.4414 118.866 36.2919V30.477C118.866 30.1884 119.008 30.0441 119.291 30.0441H119.649C119.935 30.0441 120.079 30.1884 120.079 30.477V35.1602L125.837 30.3205C125.958 30.2197 126.02 30.1676 126.024 30.1641C126.159 30.0598 126.247 30.0076 126.288 30.0076C126.551 30.0076 126.739 30.0476 126.853 30.1276C127.012 30.2388 127.091 30.4492 127.091 30.7586ZM124.946 29.6113V29.3192C124.946 29.0341 124.802 28.8916 124.516 28.8916H121.452C121.166 28.8916 121.022 29.0341 121.022 29.3192V29.6113C121.022 29.8964 121.166 30.0389 121.452 30.0389H124.516C124.802 30.0389 124.946 29.8964 124.946 29.6113Z" fill="white"/>
<path d="M136.457 35.7443H142.531L139.505 31.4001L136.457 35.7443ZM140.22 30.4614L143.941 35.7443H144.781C145.033 35.7443 145.159 35.8886 145.159 36.1771V36.3127C145.159 36.6013 145.016 36.7456 144.729 36.7456H134.228C133.942 36.7456 133.798 36.6013 133.798 36.3127V36.1771C133.798 35.8886 133.942 35.7443 134.228 35.7443H135.058L138.779 30.4561C138.841 30.3657 138.9 30.2979 138.955 30.2527C139.111 30.1206 139.294 30.0546 139.505 30.0546C139.791 30.0546 140.03 30.1902 140.22 30.4614Z" fill="white"/>
<path d="M153.566 33.387L153.556 33.5278C153.535 33.799 153.393 33.9346 153.131 33.9346H147.3V35.035C147.3 35.5079 147.818 35.7443 148.855 35.7443H153.131C153.414 35.7443 153.556 35.8886 153.556 36.1771V36.3127C153.556 36.6013 153.414 36.7456 153.131 36.7456H148.798C148.663 36.7456 148.495 36.7351 148.295 36.7143C146.823 36.5613 146.087 36.0155 146.087 35.0767V31.7651C146.087 31.1393 146.448 30.6734 147.17 30.3675C147.654 30.1624 148.231 30.0598 148.901 30.0598H150.083C150.366 30.0598 150.508 30.2023 150.508 30.4874V30.623C150.508 30.9116 150.366 31.0559 150.083 31.0559H148.855L148.518 31.0767C147.695 31.1289 147.284 31.3584 147.284 31.7651V32.9333H153.136C153.443 32.9333 153.587 33.0846 153.566 33.387Z" fill="white"/>
<path d="M161.62 30.623C161.62 30.9116 161.477 31.0559 161.19 31.0559H158.505V36.3127C158.505 36.6013 158.364 36.7456 158.08 36.7456H157.723C157.439 36.7456 157.298 36.6013 157.298 36.3127V31.0559H154.629C154.342 31.0559 154.198 30.9116 154.198 30.623V30.4874C154.198 30.2023 154.342 30.0598 154.629 30.0598H161.19C161.477 30.0598 161.62 30.2023 161.62 30.4874V30.623Z" fill="white"/>
<path d="M169.799 33.387L169.789 33.5278C169.768 33.799 169.626 33.9346 169.364 33.9346H163.533V35.035C163.533 35.5079 164.051 35.7443 165.088 35.7443H169.364C169.647 35.7443 169.789 35.8886 169.789 36.1771V36.3127C169.789 36.6013 169.647 36.7456 169.364 36.7456H165.031C164.896 36.7456 164.728 36.7351 164.528 36.7143C163.056 36.5613 162.32 36.0155 162.32 35.0767V31.7651C162.32 31.1393 162.681 30.6734 163.403 30.3675C163.887 30.1624 164.464 30.0598 165.134 30.0598H166.316C166.599 30.0598 166.741 30.2023 166.741 30.4874V30.623C166.741 30.9116 166.599 31.0559 166.316 31.0559H165.088L164.751 31.0767C163.928 31.1289 163.517 31.3584 163.517 31.7651V32.9333H169.369C169.676 32.9333 169.82 33.0846 169.799 33.387Z" fill="white"/>
<path d="M179.263 30.7586V36.3023C179.263 36.5874 179.12 36.7299 178.833 36.7299H178.48C178.194 36.7299 178.05 36.5874 178.05 36.3023V31.6452L172.416 36.4275C172.344 36.49 172.259 36.5491 172.162 36.6048C171.962 36.723 171.794 36.7821 171.66 36.7821C171.546 36.7821 171.442 36.7543 171.349 36.6986C171.141 36.577 171.038 36.4414 171.038 36.2919V30.477C171.038 30.1884 171.179 30.0441 171.463 30.0441H171.82C172.107 30.0441 172.251 30.1884 172.251 30.477V35.1602L178.009 30.3205C178.13 30.2197 178.192 30.1676 178.195 30.1641C178.33 30.0598 178.418 30.0076 178.46 30.0076C178.722 30.0076 178.911 30.0476 179.025 30.1276C179.184 30.2388 179.263 30.4492 179.263 30.7586ZM177.117 29.6113V29.3192C177.117 29.0341 176.974 28.8916 176.687 28.8916H173.624C173.337 28.8916 173.194 29.0341 173.194 29.3192V29.6113C173.194 29.8964 173.337 30.0389 173.624 30.0389H176.687C176.974 30.0389 177.117 29.8964 177.117 29.6113Z" fill="white"/>
<path d="M189.463 36.0676C189.543 36.1789 189.582 36.2884 189.582 36.3962C189.582 36.5978 189.425 36.7125 189.111 36.7404C189.097 36.7438 189.078 36.7456 189.054 36.7456H188.966C188.672 36.7456 188.482 36.683 188.396 36.5578L184.799 31.4001L181.181 36.5578C181.094 36.683 180.901 36.7456 180.6 36.7456C180.566 36.7421 180.538 36.7404 180.517 36.7404H180.466C180.151 36.7404 179.994 36.6274 179.994 36.4014C179.994 36.2971 180.035 36.1858 180.118 36.0676L184.073 30.4561C184.135 30.3657 184.194 30.2979 184.249 30.2527C184.405 30.1206 184.588 30.0546 184.799 30.0546C185.085 30.0546 185.324 30.1902 185.514 30.4614L189.463 36.0676Z" fill="white"/>
<path d="M198.513 30.7586V36.3023C198.513 36.5874 198.369 36.7299 198.082 36.7299H197.73C197.443 36.7299 197.3 36.5874 197.3 36.3023V31.6452L191.666 36.4275C191.593 36.49 191.509 36.5491 191.412 36.6048C191.212 36.723 191.044 36.7821 190.909 36.7821C190.795 36.7821 190.692 36.7543 190.598 36.6986C190.391 36.577 190.287 36.4414 190.287 36.2919V30.477C190.287 30.1884 190.429 30.0441 190.712 30.0441H191.07C191.357 30.0441 191.5 30.1884 191.5 30.477V35.1602L197.258 30.3205C197.379 30.2197 197.442 30.1676 197.445 30.1641C197.58 30.0598 197.668 30.0076 197.709 30.0076C197.972 30.0076 198.16 30.0476 198.274 30.1276C198.433 30.2388 198.513 30.4492 198.513 30.7586Z" fill="white"/>
<path d="M208.22 36.3127C208.22 36.6013 208.077 36.7456 207.79 36.7456H207.448C207.161 36.7456 207.018 36.6013 207.018 36.3127V33.9346H201.151V36.3127C201.151 36.6013 201.007 36.7456 200.721 36.7456H200.363C200.08 36.7456 199.938 36.6013 199.938 36.3127V30.4874C199.938 30.2023 200.08 30.0598 200.363 30.0598H200.721C201.007 30.0598 201.151 30.2023 201.151 30.4874V32.9333H207.018V30.4874C207.018 30.2023 207.161 30.0598 207.448 30.0598H207.79C208.077 30.0598 208.22 30.2023 208.22 30.4874V36.3127Z" fill="white"/>
<path d="M216 30.4926V30.6282C216 30.9168 215.857 31.0611 215.57 31.0611H212.947C212.346 31.0611 211.933 31.082 211.709 31.1237C211.145 31.228 210.864 31.4592 210.864 31.8173V36.3179C210.864 36.603 210.72 36.7456 210.433 36.7456H210.076C209.793 36.7456 209.651 36.603 209.651 36.3179V31.8173C209.651 30.9411 210.245 30.3814 211.434 30.138C211.689 30.0859 212.197 30.0598 212.958 30.0598H215.57C215.857 30.0598 216 30.2041 216 30.4926Z" fill="white"/>
</svg>
