<svg width="157" height="30" viewBox="0 0 157 30" fill="none" xmlns="http://www.w3.org/2000/svg">
<mask id="path-1-outside-1_14_592" maskUnits="userSpaceOnUse" x="-0.474609" y="1" width="157" height="16" fill="black">
<rect fill="white" x="-0.474609" y="1" width="157" height="16"/>
<path d="M2.94238 6.13574C2.94954 7.03092 3.86263 7.47852 5.68164 7.47852H13.126V3.13867C13.126 2.54427 13.4232 2.24707 14.0176 2.24707H14.6406C15.2279 2.24707 15.5215 2.54427 15.5215 3.13867L15.5107 12.2051C15.5107 12.7923 15.2171 13.0859 14.6299 13.0859H14.0068C13.4196 13.0859 13.126 12.7923 13.126 12.2051V9.46582L5.28418 9.45508C3.98079 9.45508 2.91374 9.22591 2.08301 8.76758C1.0446 8.19466 0.525391 7.30664 0.525391 6.10352L0.536133 3.13867C0.536133 2.54427 0.829753 2.24707 1.41699 2.24707H2.04004C2.62012 2.24707 2.91374 2.54427 2.9209 3.13867L2.94238 6.13574Z"/>
<path d="M19.6787 13.0859H20.4199C20.6061 13.0859 20.778 13.0286 20.9355 12.9141L31.4092 5.2334V12.1943C31.4092 12.7887 31.7064 13.0859 32.3008 13.0859H32.8916C33.486 13.0859 33.7832 12.7887 33.7832 12.1943V3.03125C33.7832 2.50846 33.4466 2.24707 32.7734 2.24707H32.0537C31.8675 2.24707 31.6921 2.30794 31.5273 2.42969L21.0645 10.0781V3.13867C21.0645 2.54427 20.7673 2.24707 20.1729 2.24707H19.582C18.9876 2.24707 18.6904 2.54427 18.6904 3.13867V12.2803C18.6904 12.8174 19.0199 13.0859 19.6787 13.0859Z"/>
<path d="M52.335 12.1943C52.335 12.7887 51.9661 13.0859 51.2285 13.0859H42.3984C40.7728 13.0859 39.5518 12.9248 38.7354 12.6025C37.4534 12.0941 36.8125 11.1631 36.8125 9.80957V5.53418C36.8125 3.34277 38.5098 2.24707 41.9043 2.24707H51.3574C51.9518 2.24707 52.249 2.54427 52.249 3.13867V3.375C52.249 3.96224 51.9518 4.25586 51.3574 4.25586H42.0654C41.2419 4.25586 40.6439 4.30241 40.2715 4.39551C39.5553 4.57454 39.1973 4.93262 39.1973 5.46973V9.71289C39.1973 10.6296 40.2858 11.0879 42.4629 11.0879H51.4434C52.0378 11.0879 52.335 11.3851 52.335 11.9795V12.1943Z"/>
<path d="M66.4072 3.12793V3.35352C66.4072 3.94792 66.11 4.24512 65.5156 4.24512H61.541V12.1943C61.541 12.7887 61.2474 13.0859 60.6602 13.0859H60.0371C59.4499 13.0859 59.1562 12.7887 59.1562 12.1943V4.24512H55.1816C54.5872 4.24512 54.29 3.94792 54.29 3.35352V3.12793C54.29 2.54069 54.5872 2.24707 55.1816 2.24707H65.5156C66.11 2.24707 66.4072 2.54069 66.4072 3.12793Z"/>
<path d="M83.3906 9.72363C83.3906 10.9769 82.7533 11.8971 81.4785 12.4844C80.612 12.8854 79.484 13.0859 78.0947 13.0859H74.1309C71.5742 13.0859 69.8805 12.4521 69.0498 11.1846C68.749 10.7262 68.5986 10.2393 68.5986 9.72363V5.72754C68.5986 4.84668 69.0104 4.08398 69.834 3.43945C70.8438 2.64453 72.2725 2.24707 74.1201 2.24707H78.0947C81.6253 2.24707 83.3906 3.40007 83.3906 5.70605V9.72363ZM80.9629 9.72363V5.54492C80.9629 4.68555 79.9854 4.25586 78.0303 4.25586H74.1523C73.4505 4.25586 72.8167 4.3418 72.251 4.51367C71.4059 4.77148 70.9834 5.17611 70.9834 5.72754V9.72363C70.9834 10.2536 71.4131 10.6331 72.2725 10.8623C72.8311 11.0127 73.4613 11.0879 74.1631 11.0879H78.041C78.6569 11.0879 79.2406 11.002 79.792 10.8301C80.5726 10.5866 80.9629 10.2178 80.9629 9.72363Z"/>
<path d="M97.5488 3.375C97.5488 3.96224 97.2516 4.25586 96.6572 4.25586H91.415C90.5342 4.25586 89.9541 4.29525 89.6748 4.37402C89.0518 4.55306 88.7402 4.96484 88.7402 5.60938V12.1943C88.7402 12.7887 88.4466 13.0859 87.8594 13.0859H87.2041C86.6169 13.0859 86.3232 12.7852 86.3232 12.1836V5.60938C86.3232 4.4349 86.7529 3.53613 87.6123 2.91309C87.999 2.63379 88.5039 2.44759 89.127 2.35449C89.6068 2.28288 90.416 2.24707 91.5547 2.24707H96.6572C97.2516 2.24707 97.5488 2.54427 97.5488 3.13867V3.375Z"/>
<path d="M114.715 9.6377C114.715 11.8792 112.996 13 109.559 13H102.114V15.2021C102.114 15.7894 101.821 16.083 101.233 16.083H100.61C100.023 16.083 99.7295 15.7894 99.7295 15.2021V5.46973C99.7295 4.15202 100.349 3.24251 101.588 2.74121C102.404 2.41178 103.6 2.24707 105.176 2.24707H108.979C112.803 2.24707 114.715 3.31055 114.715 5.4375V9.6377ZM112.298 9.66992V5.46973C112.298 4.89681 111.854 4.52441 110.966 4.35254C110.593 4.28092 109.938 4.24512 109 4.24512H105.283C103.171 4.24512 102.114 4.67122 102.114 5.52344V11.0127H109.559C111.385 11.0127 112.298 10.5651 112.298 9.66992Z"/>
<path d="M133.535 9.83105C133.535 12.001 131.906 13.0859 128.647 13.0859H122.814C122.249 13.0859 121.633 13.0072 120.967 12.8496C118.804 12.3411 117.723 11.3743 117.723 9.94922V8.56348C117.723 7.43913 118.31 6.59049 119.484 6.01758C120.38 5.58073 121.461 5.3623 122.729 5.3623H131.172C131.05 4.62467 130.112 4.25586 128.357 4.25586H126.553C125.965 4.25586 125.672 3.96224 125.672 3.375V3.13867C125.672 2.54427 125.965 2.24707 126.553 2.24707H127.863C131.645 2.24707 133.535 3.3571 133.535 5.57715V9.83105ZM131.15 9.94922V7.37109H122.675C122.224 7.37109 121.733 7.45345 121.203 7.61816C120.473 7.84733 120.107 8.15885 120.107 8.55273V9.92773C120.107 10.3789 120.534 10.6976 121.386 10.8838C121.679 10.9482 122.134 11.0163 122.75 11.0879H128.669C130.323 11.0879 131.15 10.7083 131.15 9.94922Z"/>
<path d="M140.765 11.0879L145.91 4.65332L151.002 11.0879H140.765ZM147.027 2.46191C146.777 2.15397 146.401 2 145.899 2C145.405 2 145.04 2.14681 144.804 2.44043L137.821 11.0879H136.693C136.099 11.0879 135.802 11.3851 135.802 11.9795V12.2051C135.802 12.7923 136.099 13.0859 136.693 13.0859H155.084C155.678 13.0859 155.976 12.7923 155.976 12.2051V11.9795C155.976 11.3851 155.678 11.0879 155.084 11.0879H153.956L147.027 2.46191Z"/>
</mask>
<path d="M2.94238 6.13574C2.94954 7.03092 3.86263 7.47852 5.68164 7.47852H13.126V3.13867C13.126 2.54427 13.4232 2.24707 14.0176 2.24707H14.6406C15.2279 2.24707 15.5215 2.54427 15.5215 3.13867L15.5107 12.2051C15.5107 12.7923 15.2171 13.0859 14.6299 13.0859H14.0068C13.4196 13.0859 13.126 12.7923 13.126 12.2051V9.46582L5.28418 9.45508C3.98079 9.45508 2.91374 9.22591 2.08301 8.76758C1.0446 8.19466 0.525391 7.30664 0.525391 6.10352L0.536133 3.13867C0.536133 2.54427 0.829753 2.24707 1.41699 2.24707H2.04004C2.62012 2.24707 2.91374 2.54427 2.9209 3.13867L2.94238 6.13574Z" fill="#DC2B1B"/>
<path d="M19.6787 13.0859H20.4199C20.6061 13.0859 20.778 13.0286 20.9355 12.9141L31.4092 5.2334V12.1943C31.4092 12.7887 31.7064 13.0859 32.3008 13.0859H32.8916C33.486 13.0859 33.7832 12.7887 33.7832 12.1943V3.03125C33.7832 2.50846 33.4466 2.24707 32.7734 2.24707H32.0537C31.8675 2.24707 31.6921 2.30794 31.5273 2.42969L21.0645 10.0781V3.13867C21.0645 2.54427 20.7673 2.24707 20.1729 2.24707H19.582C18.9876 2.24707 18.6904 2.54427 18.6904 3.13867V12.2803C18.6904 12.8174 19.0199 13.0859 19.6787 13.0859Z" fill="#DC2B1B"/>
<path d="M52.335 12.1943C52.335 12.7887 51.9661 13.0859 51.2285 13.0859H42.3984C40.7728 13.0859 39.5518 12.9248 38.7354 12.6025C37.4534 12.0941 36.8125 11.1631 36.8125 9.80957V5.53418C36.8125 3.34277 38.5098 2.24707 41.9043 2.24707H51.3574C51.9518 2.24707 52.249 2.54427 52.249 3.13867V3.375C52.249 3.96224 51.9518 4.25586 51.3574 4.25586H42.0654C41.2419 4.25586 40.6439 4.30241 40.2715 4.39551C39.5553 4.57454 39.1973 4.93262 39.1973 5.46973V9.71289C39.1973 10.6296 40.2858 11.0879 42.4629 11.0879H51.4434C52.0378 11.0879 52.335 11.3851 52.335 11.9795V12.1943Z" fill="#DC2B1B"/>
<path d="M66.4072 3.12793V3.35352C66.4072 3.94792 66.11 4.24512 65.5156 4.24512H61.541V12.1943C61.541 12.7887 61.2474 13.0859 60.6602 13.0859H60.0371C59.4499 13.0859 59.1562 12.7887 59.1562 12.1943V4.24512H55.1816C54.5872 4.24512 54.29 3.94792 54.29 3.35352V3.12793C54.29 2.54069 54.5872 2.24707 55.1816 2.24707H65.5156C66.11 2.24707 66.4072 2.54069 66.4072 3.12793Z" fill="#DC2B1B"/>
<path d="M83.3906 9.72363C83.3906 10.9769 82.7533 11.8971 81.4785 12.4844C80.612 12.8854 79.484 13.0859 78.0947 13.0859H74.1309C71.5742 13.0859 69.8805 12.4521 69.0498 11.1846C68.749 10.7262 68.5986 10.2393 68.5986 9.72363V5.72754C68.5986 4.84668 69.0104 4.08398 69.834 3.43945C70.8438 2.64453 72.2725 2.24707 74.1201 2.24707H78.0947C81.6253 2.24707 83.3906 3.40007 83.3906 5.70605V9.72363ZM80.9629 9.72363V5.54492C80.9629 4.68555 79.9854 4.25586 78.0303 4.25586H74.1523C73.4505 4.25586 72.8167 4.3418 72.251 4.51367C71.4059 4.77148 70.9834 5.17611 70.9834 5.72754V9.72363C70.9834 10.2536 71.4131 10.6331 72.2725 10.8623C72.8311 11.0127 73.4613 11.0879 74.1631 11.0879H78.041C78.6569 11.0879 79.2406 11.002 79.792 10.8301C80.5726 10.5866 80.9629 10.2178 80.9629 9.72363Z" fill="#DC2B1B"/>
<path d="M97.5488 3.375C97.5488 3.96224 97.2516 4.25586 96.6572 4.25586H91.415C90.5342 4.25586 89.9541 4.29525 89.6748 4.37402C89.0518 4.55306 88.7402 4.96484 88.7402 5.60938V12.1943C88.7402 12.7887 88.4466 13.0859 87.8594 13.0859H87.2041C86.6169 13.0859 86.3232 12.7852 86.3232 12.1836V5.60938C86.3232 4.4349 86.7529 3.53613 87.6123 2.91309C87.999 2.63379 88.5039 2.44759 89.127 2.35449C89.6068 2.28288 90.416 2.24707 91.5547 2.24707H96.6572C97.2516 2.24707 97.5488 2.54427 97.5488 3.13867V3.375Z" fill="#DC2B1B"/>
<path d="M114.715 9.6377C114.715 11.8792 112.996 13 109.559 13H102.114V15.2021C102.114 15.7894 101.821 16.083 101.233 16.083H100.61C100.023 16.083 99.7295 15.7894 99.7295 15.2021V5.46973C99.7295 4.15202 100.349 3.24251 101.588 2.74121C102.404 2.41178 103.6 2.24707 105.176 2.24707H108.979C112.803 2.24707 114.715 3.31055 114.715 5.4375V9.6377ZM112.298 9.66992V5.46973C112.298 4.89681 111.854 4.52441 110.966 4.35254C110.593 4.28092 109.938 4.24512 109 4.24512H105.283C103.171 4.24512 102.114 4.67122 102.114 5.52344V11.0127H109.559C111.385 11.0127 112.298 10.5651 112.298 9.66992Z" fill="#DC2B1B"/>
<path d="M133.535 9.83105C133.535 12.001 131.906 13.0859 128.647 13.0859H122.814C122.249 13.0859 121.633 13.0072 120.967 12.8496C118.804 12.3411 117.723 11.3743 117.723 9.94922V8.56348C117.723 7.43913 118.31 6.59049 119.484 6.01758C120.38 5.58073 121.461 5.3623 122.729 5.3623H131.172C131.05 4.62467 130.112 4.25586 128.357 4.25586H126.553C125.965 4.25586 125.672 3.96224 125.672 3.375V3.13867C125.672 2.54427 125.965 2.24707 126.553 2.24707H127.863C131.645 2.24707 133.535 3.3571 133.535 5.57715V9.83105ZM131.15 9.94922V7.37109H122.675C122.224 7.37109 121.733 7.45345 121.203 7.61816C120.473 7.84733 120.107 8.15885 120.107 8.55273V9.92773C120.107 10.3789 120.534 10.6976 121.386 10.8838C121.679 10.9482 122.134 11.0163 122.75 11.0879H128.669C130.323 11.0879 131.15 10.7083 131.15 9.94922Z" fill="#DC2B1B"/>
<path d="M140.765 11.0879L145.91 4.65332L151.002 11.0879H140.765ZM147.027 2.46191C146.777 2.15397 146.401 2 145.899 2C145.405 2 145.04 2.14681 144.804 2.44043L137.821 11.0879H136.693C136.099 11.0879 135.802 11.3851 135.802 11.9795V12.2051C135.802 12.7923 136.099 13.0859 136.693 13.0859H155.084C155.678 13.0859 155.976 12.7923 155.976 12.2051V11.9795C155.976 11.3851 155.678 11.0879 155.084 11.0879H153.956L147.027 2.46191Z" fill="#DC2B1B"/>
<path d="M2.94238 6.13574C2.94954 7.03092 3.86263 7.47852 5.68164 7.47852H13.126V3.13867C13.126 2.54427 13.4232 2.24707 14.0176 2.24707H14.6406C15.2279 2.24707 15.5215 2.54427 15.5215 3.13867L15.5107 12.2051C15.5107 12.7923 15.2171 13.0859 14.6299 13.0859H14.0068C13.4196 13.0859 13.126 12.7923 13.126 12.2051V9.46582L5.28418 9.45508C3.98079 9.45508 2.91374 9.22591 2.08301 8.76758C1.0446 8.19466 0.525391 7.30664 0.525391 6.10352L0.536133 3.13867C0.536133 2.54427 0.829753 2.24707 1.41699 2.24707H2.04004C2.62012 2.24707 2.91374 2.54427 2.9209 3.13867L2.94238 6.13574Z" stroke="#DC2B1B" stroke-width="0.6" mask="url(#path-1-outside-1_14_592)"/>
<path d="M19.6787 13.0859H20.4199C20.6061 13.0859 20.778 13.0286 20.9355 12.9141L31.4092 5.2334V12.1943C31.4092 12.7887 31.7064 13.0859 32.3008 13.0859H32.8916C33.486 13.0859 33.7832 12.7887 33.7832 12.1943V3.03125C33.7832 2.50846 33.4466 2.24707 32.7734 2.24707H32.0537C31.8675 2.24707 31.6921 2.30794 31.5273 2.42969L21.0645 10.0781V3.13867C21.0645 2.54427 20.7673 2.24707 20.1729 2.24707H19.582C18.9876 2.24707 18.6904 2.54427 18.6904 3.13867V12.2803C18.6904 12.8174 19.0199 13.0859 19.6787 13.0859Z" stroke="#DC2B1B" stroke-width="0.6" mask="url(#path-1-outside-1_14_592)"/>
<path d="M52.335 12.1943C52.335 12.7887 51.9661 13.0859 51.2285 13.0859H42.3984C40.7728 13.0859 39.5518 12.9248 38.7354 12.6025C37.4534 12.0941 36.8125 11.1631 36.8125 9.80957V5.53418C36.8125 3.34277 38.5098 2.24707 41.9043 2.24707H51.3574C51.9518 2.24707 52.249 2.54427 52.249 3.13867V3.375C52.249 3.96224 51.9518 4.25586 51.3574 4.25586H42.0654C41.2419 4.25586 40.6439 4.30241 40.2715 4.39551C39.5553 4.57454 39.1973 4.93262 39.1973 5.46973V9.71289C39.1973 10.6296 40.2858 11.0879 42.4629 11.0879H51.4434C52.0378 11.0879 52.335 11.3851 52.335 11.9795V12.1943Z" stroke="#DC2B1B" stroke-width="0.6" mask="url(#path-1-outside-1_14_592)"/>
<path d="M66.4072 3.12793V3.35352C66.4072 3.94792 66.11 4.24512 65.5156 4.24512H61.541V12.1943C61.541 12.7887 61.2474 13.0859 60.6602 13.0859H60.0371C59.4499 13.0859 59.1562 12.7887 59.1562 12.1943V4.24512H55.1816C54.5872 4.24512 54.29 3.94792 54.29 3.35352V3.12793C54.29 2.54069 54.5872 2.24707 55.1816 2.24707H65.5156C66.11 2.24707 66.4072 2.54069 66.4072 3.12793Z" stroke="#DC2B1B" stroke-width="0.6" mask="url(#path-1-outside-1_14_592)"/>
<path d="M83.3906 9.72363C83.3906 10.9769 82.7533 11.8971 81.4785 12.4844C80.612 12.8854 79.484 13.0859 78.0947 13.0859H74.1309C71.5742 13.0859 69.8805 12.4521 69.0498 11.1846C68.749 10.7262 68.5986 10.2393 68.5986 9.72363V5.72754C68.5986 4.84668 69.0104 4.08398 69.834 3.43945C70.8438 2.64453 72.2725 2.24707 74.1201 2.24707H78.0947C81.6253 2.24707 83.3906 3.40007 83.3906 5.70605V9.72363ZM80.9629 9.72363V5.54492C80.9629 4.68555 79.9854 4.25586 78.0303 4.25586H74.1523C73.4505 4.25586 72.8167 4.3418 72.251 4.51367C71.4059 4.77148 70.9834 5.17611 70.9834 5.72754V9.72363C70.9834 10.2536 71.4131 10.6331 72.2725 10.8623C72.8311 11.0127 73.4613 11.0879 74.1631 11.0879H78.041C78.6569 11.0879 79.2406 11.002 79.792 10.8301C80.5726 10.5866 80.9629 10.2178 80.9629 9.72363Z" stroke="#DC2B1B" stroke-width="0.6" mask="url(#path-1-outside-1_14_592)"/>
<path d="M97.5488 3.375C97.5488 3.96224 97.2516 4.25586 96.6572 4.25586H91.415C90.5342 4.25586 89.9541 4.29525 89.6748 4.37402C89.0518 4.55306 88.7402 4.96484 88.7402 5.60938V12.1943C88.7402 12.7887 88.4466 13.0859 87.8594 13.0859H87.2041C86.6169 13.0859 86.3232 12.7852 86.3232 12.1836V5.60938C86.3232 4.4349 86.7529 3.53613 87.6123 2.91309C87.999 2.63379 88.5039 2.44759 89.127 2.35449C89.6068 2.28288 90.416 2.24707 91.5547 2.24707H96.6572C97.2516 2.24707 97.5488 2.54427 97.5488 3.13867V3.375Z" stroke="#DC2B1B" stroke-width="0.6" mask="url(#path-1-outside-1_14_592)"/>
<path d="M114.715 9.6377C114.715 11.8792 112.996 13 109.559 13H102.114V15.2021C102.114 15.7894 101.821 16.083 101.233 16.083H100.61C100.023 16.083 99.7295 15.7894 99.7295 15.2021V5.46973C99.7295 4.15202 100.349 3.24251 101.588 2.74121C102.404 2.41178 103.6 2.24707 105.176 2.24707H108.979C112.803 2.24707 114.715 3.31055 114.715 5.4375V9.6377ZM112.298 9.66992V5.46973C112.298 4.89681 111.854 4.52441 110.966 4.35254C110.593 4.28092 109.938 4.24512 109 4.24512H105.283C103.171 4.24512 102.114 4.67122 102.114 5.52344V11.0127H109.559C111.385 11.0127 112.298 10.5651 112.298 9.66992Z" stroke="#DC2B1B" stroke-width="0.6" mask="url(#path-1-outside-1_14_592)"/>
<path d="M133.535 9.83105C133.535 12.001 131.906 13.0859 128.647 13.0859H122.814C122.249 13.0859 121.633 13.0072 120.967 12.8496C118.804 12.3411 117.723 11.3743 117.723 9.94922V8.56348C117.723 7.43913 118.31 6.59049 119.484 6.01758C120.38 5.58073 121.461 5.3623 122.729 5.3623H131.172C131.05 4.62467 130.112 4.25586 128.357 4.25586H126.553C125.965 4.25586 125.672 3.96224 125.672 3.375V3.13867C125.672 2.54427 125.965 2.24707 126.553 2.24707H127.863C131.645 2.24707 133.535 3.3571 133.535 5.57715V9.83105ZM131.15 9.94922V7.37109H122.675C122.224 7.37109 121.733 7.45345 121.203 7.61816C120.473 7.84733 120.107 8.15885 120.107 8.55273V9.92773C120.107 10.3789 120.534 10.6976 121.386 10.8838C121.679 10.9482 122.134 11.0163 122.75 11.0879H128.669C130.323 11.0879 131.15 10.7083 131.15 9.94922Z" stroke="#DC2B1B" stroke-width="0.6" mask="url(#path-1-outside-1_14_592)"/>
<path d="M140.765 11.0879L145.91 4.65332L151.002 11.0879H140.765ZM147.027 2.46191C146.777 2.15397 146.401 2 145.899 2C145.405 2 145.04 2.14681 144.804 2.44043L137.821 11.0879H136.693C136.099 11.0879 135.802 11.3851 135.802 11.9795V12.2051C135.802 12.7923 136.099 13.0859 136.693 13.0859H155.084C155.678 13.0859 155.976 12.7923 155.976 12.2051V11.9795C155.976 11.3851 155.678 11.0879 155.084 11.0879H153.956L147.027 2.46191Z" stroke="#DC2B1B" stroke-width="0.6" mask="url(#path-1-outside-1_14_592)"/>
<path d="M6.79611 26.425C6.80365 26.4641 6.80741 26.5046 6.80741 26.5463C6.80741 26.6819 6.76346 26.7914 6.67556 26.8748C6.58766 26.9583 6.47715 27 6.34404 27C6.20591 27 6.08159 26.9166 5.97109 26.7497L5.19127 25.5684H1.47676L0.696941 26.7497C0.671826 26.7992 0.647966 26.8344 0.625363 26.8553C0.57011 26.91 0.503555 26.9374 0.425699 26.9374C0.257428 26.9374 0.133109 26.8748 0.0527414 26.7497C0.0175805 26.6949 0 26.6428 0 26.5932C0 26.5593 0.005023 26.5319 0.015069 26.5111L2.79906 22.0913C2.91962 21.9009 3.09919 21.811 3.33778 21.8214C3.62158 21.8318 3.79111 21.9218 3.84636 22.0913L6.79611 26.425ZM4.67515 24.8136L3.33778 22.7679L1.99287 24.8136H4.67515Z" fill="white"/>
<path d="M13.547 25.5567C13.547 26.133 13.2419 26.5241 12.6316 26.7301C12.4457 26.7927 12.2272 26.8383 11.9761 26.867C11.8379 26.8827 11.7174 26.8905 11.6144 26.8905H7.87731C7.67137 26.8905 7.5684 26.7823 7.5684 26.5658V22.1969C7.5684 21.9831 7.67137 21.8761 7.87731 21.8761H11.5052C11.9145 21.8761 12.226 21.9009 12.4394 21.9505C12.7433 22.0209 12.997 22.1551 13.2004 22.3533C13.4315 22.575 13.547 22.837 13.547 23.1395V23.5267C13.547 23.8292 13.444 24.0808 13.2381 24.2816C13.208 24.3103 13.1929 24.3429 13.1929 24.3794C13.1929 24.4029 13.2004 24.4289 13.2155 24.4576L13.2381 24.4928C13.444 24.691 13.547 24.9413 13.547 25.2438V25.5567ZM12.6881 23.5658L12.6655 23.1434C12.6479 22.7966 12.2674 22.6232 11.524 22.6232H8.46877V24.0313H11.5579C12.1029 24.0313 12.4558 23.94 12.6165 23.7575C12.6667 23.7001 12.6906 23.6362 12.6881 23.5658ZM12.6655 25.2595C12.6705 24.9413 12.3063 24.7823 11.573 24.7823H8.44993V26.1395H11.5127C12.1933 26.1395 12.5751 25.9817 12.6579 25.6662L12.6655 25.2595Z" fill="white"/>
<path d="M19.5181 22.2986C19.5181 22.515 19.4139 22.6232 19.2054 22.6232H17.254V26.5658C17.254 26.7823 17.151 26.8905 16.9451 26.8905H16.6851C16.4792 26.8905 16.3762 26.7823 16.3762 26.5658V22.6232H14.4361C14.2276 22.6232 14.1234 22.515 14.1234 22.2986V22.1969C14.1234 21.9831 14.2276 21.8761 14.4361 21.8761H19.2054C19.4139 21.8761 19.5181 21.9831 19.5181 22.1969V22.2986Z" fill="white"/>
<path d="M25.8697 25.545C25.8697 26.442 25.1238 26.8905 23.6319 26.8905H22.2607C21.1933 26.8905 20.5051 26.6441 20.1962 26.1512C20.0832 25.9713 20.0267 25.7705 20.0267 25.5489V23.2373C20.0267 22.3299 20.7701 21.8761 22.2569 21.8761H23.6319C24.3025 21.8761 24.796 21.94 25.1125 22.0678C25.6173 22.2712 25.8697 22.661 25.8697 23.2373V25.545ZM24.9881 25.5254V23.2568C24.9881 22.8344 24.5424 22.6232 23.6508 22.6232H22.2531C21.3565 22.6232 20.9082 22.8344 20.9082 23.2568V25.5254C20.9082 25.9348 21.3565 26.1395 22.2531 26.1395H23.6545C24.5436 26.1395 24.9881 25.9348 24.9881 25.5254Z" fill="white"/>
<path d="M35.0241 26.5658C35.0241 26.7823 34.9211 26.8905 34.7152 26.8905H34.4515C34.2455 26.8905 34.1426 26.7823 34.1426 26.5658V23.3233L31.5469 26.648C31.4088 26.8253 31.2229 26.914 30.9894 26.914C30.7533 26.914 30.5649 26.8253 30.4243 26.648L27.7797 23.3077V26.5658C27.7797 26.7823 27.6754 26.8905 27.467 26.8905H27.2071C27.0011 26.8905 26.8981 26.7823 26.8981 26.5658V22.3572C26.8981 22.219 26.9521 22.1043 27.0601 22.013C27.1606 21.927 27.2799 21.884 27.418 21.884C27.6064 21.884 27.7684 21.9674 27.904 22.1343L30.9969 25.9322L34.0182 22.1265C34.1413 21.9726 34.3146 21.8957 34.5381 21.8957C34.8621 21.8957 35.0241 22.0626 35.0241 22.3963V26.5658Z" fill="white"/>
<path d="M41.8955 25.545C41.8955 26.442 41.1496 26.8905 39.6578 26.8905H38.2865C37.2191 26.8905 36.531 26.6441 36.2221 26.1512C36.1091 25.9713 36.0525 25.7705 36.0525 25.5489V23.2373C36.0525 22.3299 36.796 21.8761 38.2828 21.8761H39.6578C40.3284 21.8761 40.8219 21.94 41.1383 22.0678C41.6431 22.2712 41.8955 22.661 41.8955 23.2373V25.545ZM41.014 25.5254V23.2568C41.014 22.8344 40.5682 22.6232 39.6766 22.6232H38.279C37.3824 22.6232 36.9341 22.8344 36.9341 23.2568V25.5254C36.9341 25.9348 37.3824 26.1395 38.279 26.1395H39.6804C40.5695 26.1395 41.014 25.9348 41.014 25.5254Z" fill="white"/>
<path d="M48.9893 25.3025V25.6154C48.9893 26.1969 48.6841 26.5906 48.0738 26.7966C48.0035 26.8201 47.9031 26.837 47.7725 26.8475L47.4183 26.8748C47.2827 26.8853 47.1622 26.8905 47.0567 26.8905H43.3196C43.1136 26.8905 43.0107 26.7823 43.0107 26.5658V23.1512C43.0107 22.6923 43.2831 22.3429 43.8281 22.103C44.1772 21.9492 44.5967 21.8722 45.0864 21.8722H45.9453C46.1513 21.8722 46.2543 21.9791 46.2543 22.193V22.2947C46.2543 22.5111 46.1513 22.6193 45.9453 22.6193H45.0525L44.8076 22.6349C44.2099 22.6741 43.911 22.8462 43.911 23.1512V24.0313H47.0002C47.7762 24.0313 48.3363 24.2047 48.6804 24.5515C48.8863 24.7601 48.9893 25.0104 48.9893 25.3025ZM48.1077 25.3181C48.1077 24.9609 47.7436 24.7823 47.0152 24.7823H43.8922V26.1395H46.955C47.6506 26.1395 48.0349 26.0013 48.1077 25.7249V25.3181Z" fill="white"/>
<path d="M55.985 22.4003V26.558C55.985 26.7718 55.8808 26.8787 55.6724 26.8787H55.4162C55.2077 26.8787 55.1035 26.7718 55.1035 26.558V23.0652L51.0085 26.6519C50.9558 26.6988 50.8942 26.7432 50.8239 26.7849C50.6783 26.8735 50.5564 26.9179 50.4585 26.9179C50.3756 26.9179 50.3003 26.897 50.2325 26.8553C50.0818 26.764 50.0064 26.6623 50.0064 26.5502V22.189C50.0064 21.9726 50.1094 21.8644 50.3153 21.8644H50.5753C50.7837 21.8644 50.888 21.9726 50.888 22.189V25.7014L55.0734 22.0717C55.1613 21.9961 55.2065 21.957 55.209 21.9544C55.3069 21.8761 55.371 21.837 55.4011 21.837C55.592 21.837 55.7289 21.867 55.8118 21.927C55.9273 22.0104 55.985 22.1682 55.985 22.4003Z" fill="white"/>
<path d="M63.399 26.382C63.4568 26.4655 63.4856 26.5476 63.4856 26.6284C63.4856 26.7797 63.3714 26.8657 63.1428 26.8866C63.1328 26.8892 63.119 26.8905 63.1014 26.8905H63.0373C62.8239 26.8905 62.6857 26.8435 62.6229 26.7497L60.0085 22.8814L57.3789 26.7497C57.3161 26.8435 57.1755 26.8905 56.957 26.8905C56.9319 26.8879 56.9118 26.8866 56.8967 26.8866H56.8591C56.6305 26.8866 56.5162 26.8018 56.5162 26.6323C56.5162 26.5541 56.5464 26.4707 56.6066 26.382L59.4811 22.1734C59.5263 22.1056 59.569 22.0548 59.6091 22.0209C59.7222 21.9218 59.8553 21.8722 60.0085 21.8722C60.2169 21.8722 60.3902 21.9739 60.5284 22.1773L63.399 26.382Z" fill="white"/>
<path d="M70.0067 24.9935V25.7718C70.0067 26.0117 69.9301 26.2125 69.7769 26.3742C69.6689 26.4889 69.4881 26.6076 69.2345 26.7301C69.0612 26.8136 68.8615 26.8644 68.6355 26.8827C68.5702 26.8879 68.3504 26.8905 67.9762 26.8905H64.3069C64.101 26.8905 63.998 26.7836 63.998 26.5698V22.2008C63.998 21.9844 64.101 21.8761 64.3069 21.8761H64.5668C64.7753 21.8761 64.8795 21.9844 64.8795 22.2008V23.6636H67.9348C68.4823 23.6636 68.9318 23.7458 69.2834 23.91C69.7656 24.1343 70.0067 24.4954 70.0067 24.9935ZM69.1327 25.0248C69.1327 24.7823 69.0172 24.6141 68.7861 24.5202C68.6129 24.4498 68.3466 24.4146 67.9875 24.4146H64.8795V26.1434H67.9837C68.7497 26.1434 69.1327 25.9987 69.1327 25.7093V25.0248Z" fill="white"/>
<path d="M77.0251 26.5658C77.0251 26.7823 76.9209 26.8905 76.7124 26.8905H76.4638C76.2553 26.8905 76.1511 26.7823 76.1511 26.5658V24.7823H71.8866V26.5658C71.8866 26.7823 71.7824 26.8905 71.5739 26.8905H71.314C71.108 26.8905 71.0051 26.7823 71.0051 26.5658V22.1969C71.0051 21.9831 71.108 21.8761 71.314 21.8761H71.5739C71.7824 21.8761 71.8866 21.9831 71.8866 22.1969V24.0313H76.1511V22.1969C76.1511 21.9831 76.2553 21.8761 76.4638 21.8761H76.7124C76.9209 21.8761 77.0251 21.9831 77.0251 22.1969V26.5658Z" fill="white"/>
<path d="M84.0736 24.9935V25.7718C84.0736 26.0117 83.997 26.2125 83.8438 26.3742C83.7358 26.4889 83.555 26.6076 83.3013 26.7301C83.1281 26.8136 82.9284 26.8644 82.7024 26.8827C82.6371 26.8879 82.4173 26.8905 82.0431 26.8905H78.3738C78.1679 26.8905 78.0649 26.7836 78.0649 26.5698V22.2008C78.0649 21.9844 78.1679 21.8761 78.3738 21.8761H78.6337C78.8422 21.8761 78.9464 21.9844 78.9464 22.2008V23.6636H82.0016C82.5492 23.6636 82.9987 23.7458 83.3503 23.91C83.8325 24.1343 84.0736 24.4954 84.0736 24.9935ZM83.1996 25.0248C83.1996 24.7823 83.0841 24.6141 82.853 24.5202C82.6797 24.4498 82.4135 24.4146 82.0544 24.4146H78.9464V26.1434H82.0506C82.8166 26.1434 83.1996 25.9987 83.1996 25.7093V25.0248ZM85.3884 26.5658V22.1969C85.3884 21.9831 85.2842 21.8761 85.0757 21.8761H84.8158C84.6098 21.8761 84.5069 21.9831 84.5069 22.1969V26.5658C84.5069 26.7823 84.6098 26.8905 84.8158 26.8905H85.0757C85.2842 26.8905 85.3884 26.7823 85.3884 26.5658Z" fill="white"/>
<path d="M92.3766 22.4003V26.558C92.3766 26.7718 92.2724 26.8787 92.064 26.8787H91.8078C91.5993 26.8787 91.4951 26.7718 91.4951 26.558V23.0652L87.4001 26.6519C87.3474 26.6988 87.2858 26.7432 87.2155 26.7849C87.0699 26.8735 86.948 26.9179 86.8501 26.9179C86.7672 26.9179 86.6919 26.897 86.6241 26.8553C86.4734 26.764 86.398 26.6623 86.398 26.5502V22.189C86.398 21.9726 86.501 21.8644 86.7069 21.8644H86.9669C87.1753 21.8644 87.2796 21.9726 87.2796 22.189V25.7014L91.465 22.0717C91.5529 21.9961 91.5981 21.957 91.6006 21.9544C91.6985 21.8761 91.7626 21.837 91.7927 21.837C91.9836 21.837 92.1205 21.867 92.2034 21.927C92.3189 22.0104 92.3766 22.1682 92.3766 22.4003ZM90.817 21.5398V21.3207C90.817 21.1069 90.7128 21 90.5043 21H88.2779C88.0694 21 87.9652 21.1069 87.9652 21.3207V21.5398C87.9652 21.7536 88.0694 21.8605 88.2779 21.8605H90.5043C90.7128 21.8605 90.817 21.7536 90.817 21.5398Z" fill="white"/>
<path d="M99.1841 26.1395H103.599L101.399 22.8814L99.1841 26.1395ZM101.919 22.1773L104.624 26.1395H105.234C105.418 26.1395 105.509 26.2477 105.509 26.4641V26.5658C105.509 26.7823 105.405 26.8905 105.197 26.8905H97.5641C97.3557 26.8905 97.2515 26.7823 97.2515 26.5658V26.4641C97.2515 26.2477 97.3557 26.1395 97.5641 26.1395H98.1669L100.872 22.1734C100.917 22.1056 100.96 22.0548 101 22.0209C101.113 21.9218 101.246 21.8722 101.399 21.8722C101.608 21.8722 101.781 21.9739 101.919 22.1773Z" fill="white"/>
<path d="M111.62 24.3716L111.612 24.4772C111.597 24.6806 111.494 24.7823 111.303 24.7823H107.065V25.6076C107.065 25.9622 107.442 26.1395 108.195 26.1395H111.303C111.509 26.1395 111.612 26.2477 111.612 26.4641V26.5658C111.612 26.7823 111.509 26.8905 111.303 26.8905H108.154C108.056 26.8905 107.934 26.8827 107.788 26.867C106.719 26.7523 106.184 26.3429 106.184 25.6389V23.1552C106.184 22.6858 106.446 22.3364 106.971 22.1069C107.323 21.9531 107.742 21.8761 108.229 21.8761H109.088C109.294 21.8761 109.397 21.9831 109.397 22.1969V22.2986C109.397 22.515 109.294 22.6232 109.088 22.6232H108.195L107.95 22.6389C107.353 22.678 107.054 22.8501 107.054 23.1552V24.0313H111.307C111.531 24.0313 111.635 24.1447 111.62 24.3716Z" fill="white"/>
<path d="M117.474 22.2986C117.474 22.515 117.37 22.6232 117.161 22.6232H115.21V26.5658C115.21 26.7823 115.107 26.8905 114.901 26.8905H114.641C114.435 26.8905 114.332 26.7823 114.332 26.5658V22.6232H112.392C112.184 22.6232 112.079 22.515 112.079 22.2986V22.1969C112.079 21.9831 112.184 21.8761 112.392 21.8761H117.161C117.37 21.8761 117.474 21.9831 117.474 22.1969V22.2986Z" fill="white"/>
<path d="M123.419 24.3716L123.411 24.4772C123.396 24.6806 123.293 24.7823 123.102 24.7823H118.864V25.6076C118.864 25.9622 119.241 26.1395 119.994 26.1395H123.102C123.308 26.1395 123.411 26.2477 123.411 26.4641V26.5658C123.411 26.7823 123.308 26.8905 123.102 26.8905H119.953C119.855 26.8905 119.733 26.8827 119.587 26.867C118.518 26.7523 117.983 26.3429 117.983 25.6389V23.1552C117.983 22.6858 118.245 22.3364 118.77 22.1069C119.122 21.9531 119.541 21.8761 120.028 21.8761H120.887C121.093 21.8761 121.196 21.9831 121.196 22.1969V22.2986C121.196 22.515 121.093 22.6232 120.887 22.6232H119.994L119.749 22.6389C119.152 22.678 118.853 22.8501 118.853 23.1552V24.0313H123.106C123.33 24.0313 123.434 24.1447 123.419 24.3716Z" fill="white"/>
<path d="M130.298 22.4003V26.558C130.298 26.7718 130.194 26.8787 129.985 26.8787H129.729C129.52 26.8787 129.416 26.7718 129.416 26.558V23.0652L125.321 26.6519C125.268 26.6988 125.207 26.7432 125.137 26.7849C124.991 26.8735 124.869 26.9179 124.771 26.9179C124.688 26.9179 124.613 26.897 124.545 26.8553C124.394 26.764 124.319 26.6623 124.319 26.5502V22.189C124.319 21.9726 124.422 21.8644 124.628 21.8644H124.888C125.096 21.8644 125.201 21.9726 125.201 22.189V25.7014L129.386 22.0717C129.474 21.9961 129.519 21.957 129.522 21.9544C129.62 21.8761 129.684 21.837 129.714 21.837C129.905 21.837 130.042 21.867 130.124 21.927C130.24 22.0104 130.298 22.1682 130.298 22.4003ZM128.738 21.5398V21.3207C128.738 21.1069 128.634 21 128.425 21H126.199C125.991 21 125.886 21.1069 125.886 21.3207V21.5398C125.886 21.7536 125.991 21.8605 126.199 21.8605H128.425C128.634 21.8605 128.738 21.7536 128.738 21.5398Z" fill="white"/>
<path d="M137.712 26.382C137.769 26.4655 137.798 26.5476 137.798 26.6284C137.798 26.7797 137.684 26.8657 137.456 26.8866C137.445 26.8892 137.432 26.8905 137.414 26.8905H137.35C137.137 26.8905 136.998 26.8435 136.936 26.7497L134.321 22.8814L131.692 26.7497C131.629 26.8435 131.488 26.8905 131.27 26.8905C131.245 26.8879 131.225 26.8866 131.209 26.8866H131.172C130.943 26.8866 130.829 26.8018 130.829 26.6323C130.829 26.5541 130.859 26.4707 130.919 26.382L133.794 22.1734C133.839 22.1056 133.882 22.0548 133.922 22.0209C134.035 21.9218 134.168 21.8722 134.321 21.8722C134.53 21.8722 134.703 21.9739 134.841 22.1773L137.712 26.382Z" fill="white"/>
<path d="M144.289 22.4003V26.558C144.289 26.7718 144.185 26.8787 143.977 26.8787H143.72C143.512 26.8787 143.408 26.7718 143.408 26.558V23.0652L139.313 26.6519C139.26 26.6988 139.199 26.7432 139.128 26.7849C138.983 26.8735 138.861 26.9179 138.763 26.9179C138.68 26.9179 138.605 26.897 138.537 26.8553C138.386 26.764 138.311 26.6623 138.311 26.5502V22.189C138.311 21.9726 138.414 21.8644 138.62 21.8644H138.88C139.088 21.8644 139.192 21.9726 139.192 22.189V25.7014L143.378 22.0717C143.466 21.9961 143.511 21.957 143.513 21.9544C143.611 21.8761 143.675 21.837 143.705 21.837C143.896 21.837 144.033 21.867 144.116 21.927C144.232 22.0104 144.289 22.1682 144.289 22.4003Z" fill="white"/>
<path d="M151.345 26.5658C151.345 26.7823 151.241 26.8905 151.033 26.8905H150.784C150.576 26.8905 150.471 26.7823 150.471 26.5658V24.7823H146.207V26.5658C146.207 26.7823 146.103 26.8905 145.894 26.8905H145.634C145.428 26.8905 145.325 26.7823 145.325 26.5658V22.1969C145.325 21.9831 145.428 21.8761 145.634 21.8761H145.894C146.103 21.8761 146.207 21.9831 146.207 22.1969V24.0313H150.471V22.1969C150.471 21.9831 150.576 21.8761 150.784 21.8761H151.033C151.241 21.8761 151.345 21.9831 151.345 22.1969V26.5658Z" fill="white"/>
<path d="M157 22.2008V22.3025C157 22.5189 156.896 22.6271 156.687 22.6271H154.781C154.344 22.6271 154.044 22.6428 153.881 22.6741C153.471 22.7523 153.267 22.9257 153.267 23.1943V26.5698C153.267 26.7836 153.162 26.8905 152.954 26.8905H152.694C152.488 26.8905 152.385 26.7836 152.385 26.5698V23.1943C152.385 22.5372 152.817 22.1173 153.681 21.9348C153.867 21.8957 154.236 21.8761 154.789 21.8761H156.687C156.896 21.8761 157 21.9844 157 22.2008Z" fill="white"/>
</svg>
