<svg width="30" height="30" viewBox="0 0 30 30" fill="none" xmlns="http://www.w3.org/2000/svg">
<path d="M20.8974 9.57696H9.09112C8.88079 9.57696 8.68073 9.62311 8.49966 9.70628L9.09112 10.1514H20.7873L21.4109 9.67323C21.2509 9.61097 21.0779 9.57696 20.8974 9.57696Z" fill="white"/>
<path d="M22.2616 10.5333C22.1051 10.1367 21.7959 9.8231 21.4109 9.67323L20.7873 10.1514L14.9942 14.5936L9.09112 10.1514L8.49966 9.70628C8.12413 9.87877 7.83024 10.2105 7.6956 10.62L8.24399 11.0399C9.9249 12.3265 14.8977 16.1279 14.9942 16.1451C15.0914 16.1625 20.1095 12.2254 21.7492 10.9364C22.0701 10.6842 22.2616 10.5333 22.2616 10.5333Z" fill="white"/>
<path fill-rule="evenodd" clip-rule="evenodd" d="M7 11.0399V18.8602C7.19339 20.37 7.75388 20.743 9.09112 21H20.8974C22.4902 20.8542 22.9364 20.4087 23 18.8639V11.1248C22.796 9.42346 22.1952 9.1562 20.8974 9H9.09112C7.68976 9.22046 7.14624 9.59225 7 11.0399ZM7.61534 18.8639V11.1248C7.61534 10.948 7.64358 10.7782 7.6956 10.62C7.83024 10.2105 8.12413 9.87877 8.49966 9.70628C8.68073 9.62311 8.88079 9.57696 9.09112 9.57696H20.8974C21.0779 9.57696 21.2509 9.61097 21.4109 9.67323C21.7959 9.8231 22.1051 10.1367 22.2616 10.5333C22.3335 10.7156 22.3731 10.9153 22.3731 11.1248V18.8639C22.3731 19.7188 21.7124 20.4118 20.8974 20.4118H9.09112C8.27607 20.4118 7.61534 19.7188 7.61534 18.8639Z" fill="white"/>
<path d="M7.61534 11.1248V18.8639C7.61534 19.7188 8.27607 20.4118 9.09112 20.4118H20.8974C21.7124 20.4118 22.3731 19.7188 22.3731 18.8639V11.1248C22.3731 10.9153 22.3335 10.7156 22.2616 10.5333C22.2616 10.5333 22.0701 10.6842 21.7492 10.9364V18.8639C21.7766 19.4897 21.5568 19.7195 20.8974 19.8267H9.09112C8.54087 19.7071 8.32813 19.529 8.24399 18.8639V11.0399L7.6956 10.62C7.64358 10.7782 7.61534 10.948 7.61534 11.1248Z" fill="white"/>
</svg>
