<svg width="30" height="30" viewBox="0 0 30 30" fill="none" xmlns="http://www.w3.org/2000/svg">
<path d="M15.428 22.8561C19.5304 22.8561 22.8561 19.5304 22.8561 15.428C22.8561 11.3256 19.5304 8 15.428 8C11.3256 8 8 11.3256 8 15.428C8 16.781 8.36172 18.0495 8.99374 19.1421L8.3714 22.4847L11.714 21.8624C12.8066 22.4943 14.0751 22.8561 15.428 22.8561Z" stroke="white" stroke-width="1.5" stroke-linecap="round" stroke-linejoin="round"/>
<path d="M13.5859 12.2836C13.4512 11.9763 13.3015 11.9689 13.1742 11.9689C13.0619 11.9614 12.9416 11.9614 12.8143 11.9614C12.695 11.9614 12.4926 12.0062 12.3206 12.1936C12.1481 12.3806 11.6768 12.8225 11.6768 13.7284C11.6768 14.6334 12.334 15.5087 12.4255 15.6305C12.515 15.7503 13.6982 17.6669 15.5705 18.4086C17.1276 19.0226 17.4424 18.9028 17.7794 18.865C18.116 18.8277 18.8652 18.4235 19.0223 17.989C19.172 17.5624 19.172 17.1881 19.1272 17.113C19.0824 17.0384 18.9547 16.9932 18.7752 16.8958C18.5878 16.8062 17.6894 16.3568 17.5174 16.2967C17.3449 16.237 17.2251 16.2071 17.1053 16.3867C16.9855 16.5741 16.6334 16.9857 16.5216 17.1055C16.4162 17.2254 16.3043 17.2403 16.1244 17.1503C15.9374 17.0607 15.3458 16.8659 14.6418 16.237C14.095 15.7498 13.7281 15.1437 13.6157 14.9643C13.5113 14.7768 13.6008 14.6794 13.6982 14.5894C13.7808 14.5074 13.8856 14.3726 13.9756 14.2677C14.0651 14.1624 14.095 14.0803 14.1626 13.9605C14.2223 13.8407 14.1924 13.7284 14.1476 13.6388C14.1025 13.5563 13.7509 12.6505 13.5859 12.2836Z" fill="white"/>
</svg>
